<?xml version="1.0" encoding="utf-8"?>
<!-- Generator: Adobe Illustrator 16.0.0, SVG Export Plug-In . SVG Version: 6.00 Build 0)  -->
<!DOCTYPE svg PUBLIC "-//W3C//DTD SVG 1.1//EN" "http://www.w3.org/Graphics/SVG/1.1/DTD/svg11.dtd">
<svg version="1.1" id="Layer_1" xmlns="http://www.w3.org/2000/svg" xmlns:xlink="http://www.w3.org/1999/xlink" x="0px" y="0px"
	 width="243.667px" height="76.667px" viewBox="0 0 243.667 76.667" enable-background="new 0 0 243.667 76.667"
	 xml:space="preserve">
<g>
	<g>
		<g>
			<path fill="#010202" d="M199.9,28.31c-0.939-2.204-1.867-4.397-2.779-6.578c-0.916-2.183-1.783-4.28-2.605-6.298
				c-0.82-2.017-1.584-3.87-2.287-5.56c-0.422-1.031-0.984-2.135-1.688-3.307s-1.561-2.239-2.568-3.201
				c-1.008-0.961-2.182-1.76-3.518-2.393s-2.875-0.95-4.609-0.95h-12.734v0.562c0.797,0,1.619,0.317,2.463,0.95
				s1.664,1.42,2.461,2.357c0.799,0.938,1.535,1.96,2.217,3.061c0.682,1.104,1.277,2.1,1.795,2.99l8.02,19.992h-12.051v0.985h12.445
				l0.873,2.173c0.984,2.439,1.971,4.655,2.957,6.647c0.984,1.996,2.145,3.694,3.482,5.102c1.336,1.408,2.906,2.497,4.713,3.271
				c1.807,0.773,3.998,1.161,6.58,1.161h5.697c-2.109-4.972-4.174-9.85-6.191-14.636C201.729,32.626,200.836,30.516,199.9,28.31z"/>
			<path fill="#010202" d="M160.52,0.023h-15.691v0.021l-0.07-0.021l-11.975,32.729c-0.352-0.544-0.746-1.327-1.184-2.366
				c-0.562-1.338-1.186-2.885-1.865-4.645s-1.432-3.648-2.252-5.665c-0.82-2.016-1.725-4.011-2.709-5.98
				c-0.984-1.971-2.039-3.823-3.167-5.559c-1.125-1.735-2.346-3.189-3.658-4.363c-1.314-1.031-2.65-1.841-4.011-2.428
				c-1.362-0.586-2.603-0.996-3.729-1.23c-1.313-0.281-2.604-0.445-3.87-0.493h-13.65v0.562c0.751,0.048,1.572,0.165,2.462,0.353
				c0.799,0.188,1.7,0.504,2.71,0.949c1.008,0.446,2.099,1.068,3.271,1.865c0.375,0.281,0.761,0.633,1.16,1.055
				c0.397,0.424,0.809,0.893,1.231,1.408l0.562,0.773c1.313,1.877,2.675,4.223,4.081,7.037c1.408,2.814,2.815,5.781,4.223,8.9
				c1.408,3.12,2.802,6.252,4.187,9.394c1.384,3.144,2.709,5.969,3.976,8.477c1.268,2.512,2.473,4.551,3.624,6.123
				c1.148,1.571,2.193,2.356,3.131,2.356h0.635l5.533-15.503l-0.012-0.014l11.361-31.054l0.02,46.57h15.676V0.023z"/>
			<polygon fill="#010202" points="241.555,0.023 225.863,0.023 225.82,29.937 212.025,29.937 212.025,30.922 225.818,30.922 
				225.793,49.276 241.555,49.276 			"/>
		</g>
	</g>
</g>
<g>
	<path fill="#010202" d="M4.482,36.5l4.694,12.4l4.873-12.4h1.98v14.144h-1.347V38.422h-0.04L9.811,50.644H8.543L3.889,38.422h-0.04
		v12.222H2.502V36.5H4.482z"/>
	<path fill="#010202" d="M24.263,36.5l5.546,14.144h-1.445l-1.724-4.397h-6.438l-1.703,4.397h-1.427L22.758,36.5H24.263z
		 M26.185,45.097l-2.733-7.249l-2.833,7.249H26.185z"/>
	<path fill="#010202" d="M41.37,50.644l-0.178-2.575h-0.04c-0.237,0.502-0.531,0.935-0.881,1.297
		c-0.351,0.364-0.736,0.661-1.159,0.892c-0.423,0.231-0.875,0.399-1.356,0.505c-0.482,0.106-0.98,0.159-1.496,0.159
		c-1.109,0-2.083-0.202-2.922-0.604c-0.838-0.402-1.535-0.94-2.089-1.614c-0.555-0.674-0.971-1.452-1.248-2.337
		s-0.416-1.816-0.416-2.793c0-0.978,0.139-1.908,0.416-2.793s0.693-1.667,1.248-2.348c0.554-0.68,1.251-1.221,2.089-1.624
		c0.839-0.402,1.812-0.604,2.922-0.604c0.739,0,1.439,0.1,2.1,0.297c0.66,0.198,1.248,0.496,1.763,0.892
		c0.516,0.396,0.951,0.885,1.308,1.466s0.601,1.262,0.733,2.04h-1.348c-0.039-0.409-0.175-0.821-0.405-1.237
		c-0.231-0.416-0.542-0.796-0.932-1.14c-0.39-0.343-0.854-0.624-1.396-0.842c-0.541-0.218-1.148-0.326-1.822-0.326
		c-0.938,0-1.743,0.178-2.416,0.534c-0.674,0.356-1.226,0.829-1.654,1.417c-0.43,0.587-0.746,1.251-0.951,1.99
		c-0.204,0.74-0.307,1.499-0.307,2.278c0,0.766,0.103,1.521,0.307,2.268c0.205,0.746,0.521,1.413,0.951,2.001
		c0.429,0.588,0.98,1.06,1.654,1.416c0.673,0.356,1.479,0.535,2.416,0.535c0.779,0,1.476-0.129,2.09-0.387s1.132-0.617,1.555-1.079
		c0.423-0.463,0.739-1.011,0.951-1.645c0.211-0.634,0.311-1.327,0.297-2.08h-4.813v-1.148h6.002v7.19H41.37z"/>
	<path fill="#010202" d="M42.15,36.5h1.585l4.655,7.171l4.635-7.171h1.604l-5.586,8.319v5.824h-1.347v-5.824L42.15,36.5z"/>
	<path fill="#010202" d="M59.411,36.5l5.546,14.144h-1.445l-1.724-4.397h-6.438l-1.703,4.397h-1.427L57.906,36.5H59.411z
		 M61.333,45.097L58.6,37.848l-2.833,7.249H61.333z"/>
	<path fill="#010202" d="M72.504,36.5c0.581,0,1.132,0.073,1.654,0.219c0.521,0.146,0.977,0.366,1.366,0.663s0.7,0.681,0.932,1.149
		c0.23,0.469,0.346,1.02,0.346,1.653c0,0.898-0.23,1.678-0.692,2.338c-0.463,0.66-1.149,1.083-2.061,1.268v0.039
		c0.462,0.066,0.845,0.188,1.149,0.367c0.303,0.178,0.551,0.405,0.742,0.683s0.33,0.598,0.416,0.961s0.142,0.756,0.169,1.179
		c0.013,0.237,0.025,0.528,0.039,0.871c0.013,0.344,0.04,0.69,0.079,1.04c0.04,0.351,0.103,0.681,0.188,0.99
		c0.086,0.311,0.201,0.552,0.347,0.724h-1.485c-0.08-0.132-0.143-0.294-0.188-0.485c-0.047-0.191-0.079-0.39-0.099-0.595
		c-0.021-0.204-0.037-0.405-0.05-0.604c-0.014-0.198-0.026-0.37-0.04-0.516c-0.026-0.501-0.069-1-0.129-1.495
		c-0.059-0.495-0.185-0.938-0.376-1.327s-0.469-0.703-0.832-0.941c-0.363-0.237-0.861-0.343-1.495-0.316h-5.11v6.279h-1.348V36.5
		H72.504z M72.405,43.216c0.409,0,0.799-0.062,1.168-0.188c0.37-0.126,0.693-0.308,0.971-0.545s0.498-0.524,0.664-0.861
		c0.165-0.337,0.247-0.724,0.247-1.159c0-0.871-0.251-1.558-0.753-2.06s-1.268-0.753-2.297-0.753h-5.031v5.566H72.405z"/>
	<path fill="#010202" d="M8.187,60.27l5.546,14.144h-1.445l-1.724-4.397H4.126l-1.703,4.397H0.996L6.682,60.27H8.187z
		 M10.108,68.866l-2.733-7.249l-2.833,7.249H10.108z"/>
	<path fill="#010202" d="M15.421,60.27v8.756c0,0.818,0.092,1.515,0.277,2.09c0.185,0.574,0.455,1.043,0.812,1.406
		s0.793,0.627,1.308,0.792s1.096,0.248,1.743,0.248c0.66,0,1.248-0.083,1.763-0.248s0.951-0.429,1.308-0.792
		s0.627-0.832,0.812-1.406c0.186-0.575,0.277-1.271,0.277-2.09V60.27h1.348v9.053c0,0.727-0.103,1.416-0.308,2.07
		c-0.205,0.653-0.528,1.225-0.971,1.713s-1.01,0.875-1.703,1.159c-0.693,0.283-1.535,0.426-2.525,0.426
		c-0.978,0-1.812-0.143-2.506-0.426c-0.693-0.284-1.261-0.671-1.703-1.159c-0.443-0.488-0.767-1.06-0.971-1.713
		c-0.205-0.654-0.308-1.344-0.308-2.07V60.27H15.421z"/>
	<path fill="#010202" d="M37.29,60.27v1.149h-4.933v12.994h-1.347V61.419h-4.912V60.27H37.29z"/>
	<path fill="#010202" d="M37.392,64.549c0.277-0.885,0.692-1.667,1.247-2.348c0.555-0.68,1.251-1.221,2.09-1.624
		c0.839-0.402,1.812-0.604,2.922-0.604s2.08,0.202,2.912,0.604c0.832,0.403,1.525,0.944,2.079,1.624
		c0.555,0.681,0.971,1.463,1.248,2.348s0.416,1.815,0.416,2.793c0,0.977-0.139,1.908-0.416,2.793s-0.693,1.663-1.248,2.337
		c-0.554,0.674-1.247,1.212-2.079,1.614S44.76,74.69,43.65,74.69s-2.083-0.202-2.922-0.604s-1.535-0.94-2.09-1.614
		s-0.97-1.452-1.247-2.337s-0.416-1.816-0.416-2.793C36.976,66.364,37.114,65.434,37.392,64.549z M38.629,69.609
		c0.205,0.746,0.521,1.413,0.951,2.001c0.429,0.588,0.98,1.06,1.654,1.416c0.673,0.356,1.479,0.535,2.416,0.535
		s1.74-0.179,2.407-0.535c0.666-0.356,1.214-0.828,1.644-1.416c0.429-0.588,0.746-1.255,0.951-2.001
		c0.204-0.746,0.307-1.502,0.307-2.268c0-0.779-0.103-1.538-0.307-2.278c-0.205-0.739-0.522-1.403-0.951-1.99
		c-0.43-0.588-0.978-1.061-1.644-1.417c-0.667-0.356-1.47-0.534-2.407-0.534s-1.743,0.178-2.416,0.534
		c-0.674,0.356-1.226,0.829-1.654,1.417c-0.43,0.587-0.746,1.251-0.951,1.99c-0.205,0.74-0.307,1.499-0.307,2.278
		C38.322,68.107,38.424,68.863,38.629,69.609z M42.462,59.141l2.08-2.793h1.545l-2.614,2.793H42.462z"/>
	<path fill="#010202" d="M53.478,60.27v7.606l8.22-7.606h1.822l-6.318,5.844l6.616,8.3h-1.743l-5.884-7.369l-2.713,2.516v4.854
		H52.13V60.27H53.478z"/>
	<path fill="#010202" d="M74.594,60.27v1.149h-8.418v5.11h7.883v1.148h-7.883v5.586h8.517v1.149h-9.864V60.27H74.594z"/>
	<path fill="#010202" d="M82.543,60.27c0.581,0,1.132,0.073,1.654,0.219c0.521,0.146,0.977,0.366,1.366,0.663s0.7,0.681,0.932,1.149
		c0.23,0.469,0.346,1.02,0.346,1.653c0,0.898-0.23,1.678-0.692,2.338c-0.463,0.66-1.149,1.083-2.061,1.268v0.039
		c0.462,0.066,0.845,0.188,1.149,0.367c0.303,0.178,0.551,0.405,0.742,0.683s0.33,0.598,0.416,0.961s0.142,0.756,0.169,1.179
		c0.013,0.237,0.025,0.528,0.039,0.871c0.013,0.344,0.04,0.69,0.079,1.04c0.04,0.351,0.103,0.681,0.188,0.99
		c0.086,0.311,0.201,0.552,0.347,0.724h-1.485c-0.08-0.132-0.143-0.294-0.188-0.485c-0.047-0.191-0.079-0.39-0.099-0.595
		c-0.021-0.204-0.037-0.405-0.05-0.604c-0.014-0.198-0.026-0.37-0.04-0.516c-0.026-0.501-0.069-1-0.129-1.495
		c-0.059-0.495-0.185-0.938-0.376-1.327s-0.469-0.703-0.832-0.941c-0.363-0.237-0.861-0.343-1.495-0.316h-5.11v6.279h-1.348V60.27
		H82.543z M82.444,66.985c0.409,0,0.799-0.062,1.168-0.188c0.37-0.126,0.693-0.308,0.971-0.545s0.498-0.524,0.664-0.861
		c0.165-0.337,0.247-0.724,0.247-1.159c0-0.871-0.251-1.558-0.753-2.06s-1.268-0.753-2.297-0.753h-5.031v5.566H82.444z"/>
	<path fill="#010202" d="M98.761,60.27v1.149h-8.418v5.11h7.883v1.148h-7.883v5.586h8.517v1.149h-9.864V60.27H98.761z"/>
	<path fill="#010202" d="M101.074,71.58c0.238,0.489,0.564,0.879,0.98,1.169c0.416,0.291,0.908,0.499,1.476,0.624
		c0.568,0.126,1.176,0.188,1.822,0.188c0.37,0,0.773-0.053,1.209-0.159c0.436-0.105,0.842-0.273,1.218-0.505
		c0.377-0.23,0.69-0.528,0.941-0.892c0.25-0.362,0.376-0.802,0.376-1.317c0-0.396-0.089-0.739-0.268-1.029
		c-0.178-0.291-0.409-0.535-0.693-0.733s-0.598-0.359-0.94-0.485c-0.344-0.125-0.681-0.228-1.011-0.307l-3.149-0.772
		c-0.409-0.105-0.809-0.237-1.198-0.396c-0.39-0.158-0.729-0.369-1.02-0.634c-0.291-0.264-0.525-0.587-0.703-0.971
		c-0.179-0.383-0.268-0.852-0.268-1.406c0-0.343,0.065-0.746,0.198-1.208c0.132-0.462,0.379-0.897,0.742-1.308
		c0.363-0.409,0.861-0.756,1.496-1.04c0.634-0.283,1.445-0.426,2.436-0.426c0.7,0,1.367,0.093,2.001,0.277
		c0.634,0.186,1.188,0.463,1.664,0.832c0.476,0.37,0.854,0.829,1.139,1.377s0.426,1.186,0.426,1.911h-1.347
		c-0.026-0.541-0.148-1.013-0.366-1.416c-0.218-0.402-0.502-0.739-0.853-1.011c-0.35-0.271-0.752-0.475-1.208-0.613
		c-0.455-0.139-0.935-0.208-1.436-0.208c-0.463,0-0.908,0.049-1.337,0.148c-0.43,0.099-0.806,0.257-1.13,0.476
		c-0.323,0.218-0.584,0.505-0.782,0.861s-0.297,0.799-0.297,1.327c0,0.33,0.056,0.617,0.168,0.861
		c0.112,0.245,0.268,0.453,0.466,0.624c0.198,0.172,0.426,0.311,0.684,0.416c0.257,0.105,0.531,0.191,0.822,0.258l3.446,0.852
		c0.502,0.132,0.974,0.294,1.416,0.485s0.832,0.429,1.169,0.713s0.601,0.631,0.792,1.04s0.287,0.904,0.287,1.485
		c0,0.158-0.017,0.37-0.049,0.634c-0.033,0.265-0.112,0.545-0.238,0.842c-0.126,0.298-0.304,0.598-0.534,0.901
		c-0.231,0.304-0.549,0.578-0.951,0.822c-0.403,0.244-0.901,0.442-1.495,0.594c-0.595,0.152-1.308,0.229-2.14,0.229
		s-1.604-0.097-2.317-0.287c-0.713-0.191-1.321-0.485-1.822-0.882c-0.502-0.396-0.889-0.904-1.159-1.525
		c-0.271-0.62-0.386-1.366-0.347-2.238h1.347C100.725,70.484,100.837,71.092,101.074,71.58z"/>
	<path fill="#010202" d="M113.609,60.27v7.606l8.22-7.606h1.822l-6.318,5.844l6.616,8.3h-1.743l-5.884-7.369l-2.713,2.516v4.854
		h-1.348V60.27H113.609z"/>
	<path fill="#010202" d="M134.726,60.27v1.149h-8.418v5.11h7.883v1.148h-7.883v5.586h8.517v1.149h-9.864V60.27H134.726z"/>
	<path fill="#010202" d="M141.09,60.27c2.152,0.054,3.773,0.657,4.863,1.812c1.089,1.156,1.634,2.909,1.634,5.26
		s-0.545,4.104-1.634,5.259c-1.09,1.155-2.711,1.76-4.863,1.812h-4.893V60.27H141.09z M140.417,73.264
		c1.017,0,1.892-0.108,2.624-0.326c0.733-0.218,1.337-0.564,1.812-1.04s0.825-1.09,1.05-1.843c0.225-0.752,0.337-1.656,0.337-2.713
		s-0.112-1.961-0.337-2.714s-0.574-1.367-1.05-1.843c-0.476-0.475-1.079-0.821-1.812-1.039c-0.732-0.219-1.607-0.327-2.624-0.327
		h-2.872v11.845H140.417z"/>
	<path fill="#010202" d="M149.193,64.549c0.277-0.885,0.692-1.667,1.247-2.348c0.555-0.68,1.251-1.221,2.09-1.624
		c0.839-0.402,1.812-0.604,2.922-0.604s2.08,0.202,2.912,0.604c0.832,0.403,1.525,0.944,2.079,1.624
		c0.555,0.681,0.971,1.463,1.248,2.348s0.416,1.815,0.416,2.793c0,0.977-0.139,1.908-0.416,2.793s-0.693,1.663-1.248,2.337
		c-0.554,0.674-1.247,1.212-2.079,1.614s-1.803,0.604-2.912,0.604s-2.083-0.202-2.922-0.604s-1.535-0.94-2.09-1.614
		s-0.97-1.452-1.247-2.337s-0.416-1.816-0.416-2.793C148.777,66.364,148.916,65.434,149.193,64.549z M150.431,69.609
		c0.205,0.746,0.521,1.413,0.951,2.001c0.429,0.588,0.98,1.06,1.654,1.416c0.673,0.356,1.479,0.535,2.416,0.535
		s1.74-0.179,2.407-0.535c0.666-0.356,1.214-0.828,1.644-1.416c0.429-0.588,0.746-1.255,0.951-2.001
		c0.204-0.746,0.307-1.502,0.307-2.268c0-0.779-0.103-1.538-0.307-2.278c-0.205-0.739-0.522-1.403-0.951-1.99
		c-0.43-0.588-0.978-1.061-1.644-1.417c-0.667-0.356-1.47-0.534-2.407-0.534s-1.743,0.178-2.416,0.534
		c-0.674,0.356-1.226,0.829-1.654,1.417c-0.43,0.587-0.746,1.251-0.951,1.99c-0.205,0.74-0.307,1.499-0.307,2.278
		C150.124,68.107,150.226,68.863,150.431,69.609z M153.194,59.062h0.99l2.496-2.793h-1.506L153.194,59.062z M156.265,59.062h1.01
		l2.496-2.793h-1.506L156.265,59.062z"/>
	<path fill="#010202" d="M165.279,60.27v6.141h8.398V60.27h1.347v14.144h-1.347V67.56h-8.398v6.854h-1.348V60.27H165.279z"/>
	<path fill="#010202" d="M183.294,60.27l5.546,14.144h-1.445l-1.724-4.397h-6.438l-1.703,4.397h-1.427l5.686-14.144H183.294z
		 M185.216,68.866l-2.733-7.249l-2.833,7.249H185.216z M181.294,59.141l2.079-2.793h1.545l-2.614,2.793H181.294z"/>
	<path fill="#010202" d="M200.071,60.27v1.188l-9.31,11.806h9.508v1.149h-11.014v-1.188l9.311-11.806h-8.677V60.27H200.071z"/>
	<path fill="#010202" d="M216.551,60.27v1.188l-9.31,11.806h9.508v1.149h-11.014v-1.188l9.311-11.806h-8.677V60.27H216.551z"/>
	<path fill="#010202" d="M224.502,60.27c0.581,0,1.132,0.073,1.654,0.219c0.521,0.146,0.977,0.366,1.366,0.663
		s0.7,0.681,0.932,1.149c0.23,0.469,0.346,1.02,0.346,1.653c0,0.898-0.23,1.678-0.692,2.338c-0.463,0.66-1.149,1.083-2.061,1.268
		v0.039c0.462,0.066,0.845,0.188,1.149,0.367c0.303,0.178,0.551,0.405,0.742,0.683s0.33,0.598,0.416,0.961s0.142,0.756,0.169,1.179
		c0.013,0.237,0.025,0.528,0.039,0.871c0.013,0.344,0.04,0.69,0.079,1.04c0.04,0.351,0.103,0.681,0.188,0.99
		c0.086,0.311,0.201,0.552,0.347,0.724h-1.485c-0.08-0.132-0.143-0.294-0.188-0.485c-0.047-0.191-0.079-0.39-0.099-0.595
		c-0.021-0.204-0.037-0.405-0.05-0.604c-0.014-0.198-0.026-0.37-0.04-0.516c-0.026-0.501-0.069-1-0.129-1.495
		c-0.059-0.495-0.185-0.938-0.376-1.327s-0.469-0.703-0.832-0.941c-0.363-0.237-0.861-0.343-1.495-0.316h-5.11v6.279h-1.348V60.27
		H224.502z M224.403,66.985c0.409,0,0.799-0.062,1.168-0.188c0.37-0.126,0.693-0.308,0.971-0.545s0.498-0.524,0.664-0.861
		c0.165-0.337,0.247-0.724,0.247-1.159c0-0.871-0.251-1.558-0.753-2.06s-1.268-0.753-2.297-0.753h-5.031v5.566H224.403z"/>
	<path fill="#010202" d="M240.534,60.27v1.149h-4.933v12.994h-1.347V61.419h-4.912V60.27H240.534z"/>
	<path fill="#010202" d="M239.936,72.313h1.664v2.1h-1.664V72.313z"/>
</g>
</svg>
