<?xml version="1.0" encoding="utf-8"?>
<!-- Generator: Adobe Illustrator 16.0.0, SVG Export Plug-In . SVG Version: 6.00 Build 0)  -->
<!DOCTYPE svg PUBLIC "-//W3C//DTD SVG 1.1//EN" "http://www.w3.org/Graphics/SVG/1.1/DTD/svg11.dtd">
<svg version="1.1" id="Layer_1" xmlns="http://www.w3.org/2000/svg" xmlns:xlink="http://www.w3.org/1999/xlink" x="0px" y="0px"
	 width="156.383px" height="137.234px" viewBox="0 0 156.383 137.234" enable-background="new 0 0 156.383 137.234"
	 xml:space="preserve">
<g>
	<path fill="#FFFFFF" d="M19.952,13.074v0.374c0,1.628-0.22,2.729-0.77,3.719c-1.188,2.156-3.608,3.542-6.183,3.542
		c-4.114,0-7.525-3.432-7.525-7.568c0-4.203,3.433-7.613,7.657-7.613c1.628,0,3.234,0.528,4.489,1.496
		c0.572,0.418,0.99,0.836,1.694,1.694l-1.21,1.1c-1.452-1.914-2.948-2.75-4.951-2.75c-3.345,0-6.029,2.729-6.029,6.095
		c0,3.257,2.707,6.007,5.897,6.007c1.826,0,3.674-1.012,4.577-2.508c0.374-0.595,0.528-1.167,0.594-2.068h-4.356v-1.519H19.952z"/>
	<path fill="#FFFFFF" d="M23.602,16.198c0.088,1.871,1.254,3.081,2.905,3.081c1.21,0,1.936-0.506,2.816-1.914l1.32,0.748
		c-1.012,1.782-2.354,2.596-4.203,2.596c-2.64,0-4.488-1.958-4.488-4.774c0-2.838,1.804-4.818,4.422-4.818
		c2.619,0,4.357,1.914,4.357,4.818v0.264H23.602z M29.081,14.879c-0.286-1.431-1.342-2.354-2.685-2.354
		c-1.32,0-2.442,0.99-2.684,2.354H29.081z M26.352,9.729l-0.968-0.55l2.311-3.168l1.628,0.726L26.352,9.729z"/>
	<path fill="#FFFFFF" d="M33.127,25.594V11.314h1.562v1.298c0.88-1.057,1.87-1.519,3.146-1.519c2.53,0,4.4,2.047,4.4,4.841
		c0,2.751-1.848,4.774-4.356,4.774c-1.298,0-2.289-0.462-3.19-1.54v6.425H33.127z M34.58,15.935c0,1.937,1.276,3.345,3.059,3.345
		c1.694,0,2.993-1.431,2.993-3.301c0-2.002-1.254-3.454-2.993-3.454C35.856,12.524,34.58,13.933,34.58,15.935z"/>
	<path fill="#FFFFFF" d="M46.569,7.859c0,0.616-0.506,1.122-1.123,1.122c-0.616,0-1.122-0.506-1.122-1.144
		c0-0.595,0.506-1.101,1.122-1.101C46.063,6.737,46.569,7.243,46.569,7.859z M46.217,25.594h-1.562V11.314h1.562V25.594z"/>
	<path fill="#FFFFFF" d="M57.768,11.314v9.131h-1.562v-1.276c-0.88,1.057-1.87,1.54-3.146,1.54c-2.53,0-4.4-2.046-4.4-4.862
		c0-2.75,1.848-4.753,4.356-4.753c1.32,0,2.289,0.462,3.19,1.519v-1.298H57.768z M50.265,15.824c0,2.003,1.254,3.455,2.993,3.455
		c1.804,0,3.058-1.408,3.058-3.41c0-1.959-1.254-3.345-3.036-3.345C51.563,12.524,50.265,13.954,50.265,15.824z M53.368,9.729
		l-0.968-0.55l2.311-3.168l1.628,0.726L53.368,9.729z"/>
	<path fill="#FFFFFF" d="M62.321,11.314v0.989c0.814-0.968,1.21-1.21,2.068-1.21c0.506,0,0.836,0.088,1.386,0.396l-0.726,1.408
		c-0.396-0.242-0.594-0.309-0.924-0.309c-0.594,0-1.188,0.33-1.452,0.837c-0.242,0.439-0.352,1.1-0.352,2.2v4.818h-1.562v-9.131
		H62.321z"/>
	<path fill="#FFFFFF" d="M68.965,11.314v0.989c0.638-0.857,1.298-1.21,2.266-1.21c1.1,0,1.98,0.528,2.508,1.475
		c0.55-0.969,1.474-1.475,2.663-1.475c1.056,0,1.98,0.462,2.464,1.232c0.352,0.572,0.506,1.232,0.506,2.332v5.787H77.81V14.9
		c0-1.672-0.484-2.376-1.65-2.376c-1.32,0-1.958,0.946-1.958,2.86v5.061h-1.562v-5.413c0-1.672-0.572-2.508-1.694-2.508
		c-0.682,0-1.342,0.396-1.65,0.99c-0.22,0.439-0.33,1.078-0.33,1.958v4.973h-1.562v-9.131H68.965z"/>
	<path fill="#FFFFFF" d="M83.924,16.639c0,0.858,0.088,1.32,0.286,1.717c0.308,0.571,0.99,0.924,1.782,0.924
		c0.77,0,1.452-0.353,1.76-0.924c0.197-0.396,0.285-0.858,0.285-1.717v-5.324h1.562v5.5c0,1.343-0.22,2.091-0.836,2.751
		c-0.66,0.726-1.65,1.144-2.794,1.144c-1.122,0-2.112-0.418-2.772-1.144c-0.616-0.66-0.836-1.408-0.836-2.751v-5.5h1.562V16.639z
		 M84.694,9.729l-0.792-0.506l2.31-3.212l1.408,0.682L84.694,9.729z M87.643,9.729l-0.813-0.506l2.332-3.212l1.408,0.682
		L87.643,9.729z"/>
	<path fill="#FFFFFF" d="M100.007,7.859c0,0.616-0.507,1.122-1.123,1.122c-0.615,0-1.122-0.506-1.122-1.144
		c0-0.595,0.507-1.101,1.122-1.101C99.5,6.737,100.007,7.243,100.007,7.859z M99.654,20.445h-1.562v-9.131h1.562V20.445z"/>
	<path fill="#FFFFFF" d="M104.23,11.314v0.989c0.638-0.857,1.298-1.21,2.267-1.21c1.1,0,1.98,0.528,2.508,1.475
		c0.551-0.969,1.475-1.475,2.662-1.475c1.057,0,1.98,0.462,2.465,1.232c0.352,0.572,0.506,1.232,0.506,2.332v5.787h-1.562V14.9
		c0-1.672-0.484-2.376-1.65-2.376c-1.32,0-1.957,0.946-1.957,2.86v5.061h-1.562v-5.413c0-1.672-0.572-2.508-1.695-2.508
		c-0.682,0-1.342,0.396-1.649,0.99c-0.22,0.439-0.33,1.078-0.33,1.958v4.973h-1.562v-9.131H104.23z"/>
	<path fill="#FFFFFF" d="M117.628,25.594V11.314h1.562v1.298c0.879-1.057,1.869-1.519,3.146-1.519c2.529,0,4.4,2.047,4.4,4.841
		c0,2.751-1.849,4.774-4.357,4.774c-1.298,0-2.288-0.462-3.189-1.54v6.425H117.628z M119.079,15.935
		c0,1.937,1.277,3.345,3.059,3.345c1.695,0,2.993-1.431,2.993-3.301c0-2.002-1.255-3.454-2.993-3.454
		C120.356,12.524,119.079,13.933,119.079,15.935z"/>
	<path fill="#FFFFFF" d="M138.221,15.913c0,2.706-2.112,4.796-4.862,4.796c-2.707,0-4.797-2.134-4.797-4.885
		c0-2.574,2.178-4.708,4.84-4.708C136.108,11.116,138.221,13.229,138.221,15.913z M130.167,15.869c0,1.979,1.32,3.41,3.191,3.41
		c1.893,0,3.256-1.408,3.256-3.366c0-1.959-1.363-3.367-3.234-3.367C131.554,12.546,130.167,13.977,130.167,15.869z"/>
	<path fill="#FFFFFF" d="M142.18,11.314v0.989c0.813-0.968,1.21-1.21,2.068-1.21c0.506,0,0.836,0.088,1.386,0.396l-0.727,1.408
		c-0.396-0.242-0.594-0.309-0.924-0.309c-0.594,0-1.188,0.33-1.451,0.837c-0.242,0.439-0.353,1.1-0.353,2.2v4.818h-1.562v-9.131
		H142.18z"/>
	<path fill="#FFFFFF" d="M149.286,20.445h-1.562v-7.679h-0.946v-1.452h0.946V8.014h1.562v3.301h1.627v1.452h-1.627V20.445z"/>
	<path fill="#FFFFFF" d="M6.288,31.554l11.42,11.991V32.17h1.65v15.336l-11.42-11.97v11.31h-1.65V31.554z"/>
	<path fill="#FFFFFF" d="M23.8,42.599c0.088,1.871,1.254,3.081,2.905,3.081c1.21,0,1.936-0.506,2.816-1.914l1.32,0.748
		c-1.012,1.782-2.354,2.596-4.203,2.596c-2.64,0-4.488-1.958-4.488-4.774c0-2.838,1.804-4.818,4.422-4.818
		c2.619,0,4.357,1.914,4.357,4.818v0.264H23.8z M29.279,41.279c-0.286-1.431-1.342-2.354-2.685-2.354
		c-1.32,0-2.442,0.99-2.684,2.354H29.279z M26.55,36.13l-0.968-0.55l2.311-3.168l1.628,0.726L26.55,36.13z"/>
	<path fill="#FFFFFF" d="M34.888,37.715v0.989c0.638-0.857,1.298-1.21,2.266-1.21c1.1,0,1.98,0.528,2.508,1.475
		c0.55-0.969,1.474-1.475,2.663-1.475c1.056,0,1.98,0.462,2.464,1.232c0.352,0.572,0.506,1.232,0.506,2.332v5.787h-1.562v-5.545
		c0-1.672-0.484-2.376-1.65-2.376c-1.32,0-1.958,0.946-1.958,2.86v5.061h-1.562v-5.413c0-1.672-0.572-2.508-1.694-2.508
		c-0.682,0-1.342,0.396-1.65,0.99c-0.22,0.439-0.33,1.078-0.33,1.958v4.973h-1.562v-9.131H34.888z"/>
	<path fill="#FFFFFF" d="M49.341,42.599c0.088,1.871,1.254,3.081,2.904,3.081c1.21,0,1.937-0.506,2.816-1.914l1.32,0.748
		c-1.012,1.782-2.354,2.596-4.203,2.596c-2.64,0-4.488-1.958-4.488-4.774c0-2.838,1.804-4.818,4.422-4.818
		c2.619,0,4.356,1.914,4.356,4.818v0.264H49.341z M54.82,41.279c-0.286-1.431-1.342-2.354-2.685-2.354
		c-1.32,0-2.442,0.99-2.684,2.354H54.82z"/>
	<path fill="#FFFFFF" d="M60.495,46.846h-1.562v-7.679h-0.946v-1.452h0.946v-3.301h1.562v3.301h1.628v1.452h-1.628V46.846z"/>
	<path fill="#FFFFFF" d="M72.706,42.313c0,2.706-2.112,4.796-4.863,4.796c-2.706,0-4.796-2.134-4.796-4.885
		c0-2.574,2.178-4.708,4.84-4.708C70.594,37.517,72.706,39.629,72.706,42.313z M64.653,42.27c0,1.979,1.32,3.41,3.19,3.41
		c1.893,0,3.256-1.408,3.256-3.366c0-1.959-1.364-3.367-3.234-3.367C66.039,38.946,64.653,40.377,64.653,42.27z"/>
	<path fill="#FFFFFF" d="M76.665,37.715v0.989c0.814-0.968,1.21-1.21,2.068-1.21c0.506,0,0.836,0.088,1.386,0.396l-0.727,1.408
		c-0.396-0.242-0.594-0.309-0.924-0.309c-0.594,0-1.188,0.33-1.452,0.837c-0.242,0.439-0.352,1.1-0.352,2.2v4.818h-1.562v-9.131
		H76.665z"/>
	<path fill="#FFFFFF" d="M85.223,39.849c-0.33-0.616-0.726-0.902-1.276-0.902c-0.594,0-1.1,0.462-1.1,1.013
		c0,0.527,0.308,0.813,1.474,1.298c1.034,0.44,1.32,0.572,1.738,0.88c0.661,0.484,1.012,1.166,1.012,2.003
		c0,1.672-1.364,2.97-3.125,2.97c-1.518,0-2.596-0.792-3.19-2.332l1.386-0.572c0.506,1.101,0.99,1.475,1.826,1.475
		c0.858,0,1.497-0.616,1.497-1.452c0-0.683-0.33-1.013-1.475-1.496c-2.112-0.902-2.64-1.452-2.64-2.663
		c0-1.452,1.144-2.552,2.662-2.552c1.123,0,1.937,0.528,2.509,1.65L85.223,39.849z"/>
	<path fill="#FFFFFF" d="M97.323,45.394v1.452h-9.461l6.623-7.679h-5.391v-1.452h8.515l-6.579,7.679H97.323z"/>
	<path fill="#FFFFFF" d="M107.839,37.715v9.131h-1.562v-1.276c-0.88,1.057-1.87,1.54-3.146,1.54c-2.53,0-4.4-2.046-4.4-4.862
		c0-2.75,1.849-4.753,4.356-4.753c1.32,0,2.289,0.462,3.19,1.519v-1.298H107.839z M100.337,42.225c0,2.003,1.254,3.455,2.992,3.455
		c1.805,0,3.059-1.408,3.059-3.41c0-1.959-1.254-3.345-3.037-3.345C101.635,38.925,100.337,40.354,100.337,42.225z M103.438,36.13
		l-0.968-0.55l2.311-3.168l1.628,0.726L103.438,36.13z"/>
	<path fill="#FFFFFF" d="M119.368,46.647c0,1.805-0.221,2.685-0.881,3.587c-0.792,1.078-2.112,1.694-3.631,1.694
		c-2.641,0-4.356-1.606-4.444-4.181h1.54c0.066,0.748,0.176,1.122,0.44,1.54c0.483,0.748,1.431,1.21,2.486,1.21
		c1.914,0,2.927-1.232,2.927-3.586v-1.343c-0.881,1.013-1.98,1.519-3.234,1.519c-2.465,0-4.335-2.068-4.335-4.774
		c0-2.772,1.892-4.819,4.423-4.819c1.275,0,2.266,0.484,3.146,1.519v-1.298h1.562V46.647z M111.843,42.291
		c0,1.98,1.232,3.366,2.971,3.366c1.781,0,3.058-1.386,3.058-3.344c0-2.003-1.254-3.389-3.036-3.389
		C113.097,38.925,111.843,40.333,111.843,42.291z"/>
	<path fill="#FFFFFF" d="M123.942,39.013c0.902-1.034,1.893-1.496,3.19-1.496c2.509,0,4.356,2.002,4.356,4.753
		c0,2.794-1.87,4.84-4.4,4.84c-1.276,0-2.289-0.483-3.146-1.518v1.254h-1.562v-16.04h1.562V39.013z M123.832,42.291
		c0,1.98,1.255,3.389,3.036,3.389c1.717,0,3.016-1.431,3.016-3.345c0-1.958-1.255-3.389-2.993-3.389
		C125.087,38.946,123.832,40.311,123.832,42.291z"/>
	<path fill="#FFFFFF" d="M142.973,42.313c0,2.706-2.112,4.796-4.862,4.796c-2.707,0-4.797-2.134-4.797-4.885
		c0-2.574,2.178-4.708,4.84-4.708C140.86,37.517,142.973,39.629,142.973,42.313z M134.919,42.27c0,1.979,1.32,3.41,3.191,3.41
		c1.893,0,3.256-1.408,3.256-3.366c0-1.959-1.363-3.367-3.234-3.367C136.306,38.946,134.919,40.377,134.919,42.27z M138.022,36.13
		l-0.969-0.55l2.311-3.168l1.628,0.726L138.022,36.13z"/>
	<path fill="#FFFFFF" d="M146.932,46.846h-1.562v-16.04h1.562V46.846z"/>
	<path fill="#FFFFFF" d="M152.212,45.218l-2.201,4.973l-1.057-0.418l1.827-5.083L152.212,45.218z"/>
	<path fill="#FFFFFF" d="M7.432,73.245H5.87v-7.679H4.924v-1.452H5.87v-3.301h1.562v3.301H9.06v1.452H7.432V73.245z"/>
	<path fill="#FFFFFF" d="M19.643,68.713c0,2.706-2.112,4.796-4.863,4.796c-2.707,0-4.796-2.134-4.796-4.885
		c0-2.574,2.178-4.708,4.84-4.708C17.531,63.916,19.643,66.028,19.643,68.713z M11.59,68.668c0,1.98,1.32,3.411,3.19,3.411
		c1.893,0,3.256-1.408,3.256-3.366c0-1.959-1.364-3.367-3.234-3.367C12.976,65.346,11.59,66.776,11.59,68.668z M14.01,60.924
		c0,0.594-0.506,1.1-1.1,1.1c-0.616,0-1.1-0.506-1.1-1.122c0-0.572,0.506-1.078,1.1-1.078S14.01,60.308,14.01,60.924z
		 M17.817,60.924c0,0.594-0.506,1.1-1.1,1.1c-0.594,0-1.1-0.506-1.1-1.122c0-0.572,0.506-1.078,1.1-1.078
		C17.333,59.823,17.817,60.308,17.817,60.924z"/>
	<path fill="#FFFFFF" d="M23.602,65.412c0.902-1.034,1.892-1.496,3.19-1.496c2.508,0,4.356,2.002,4.356,4.752
		c0,2.795-1.87,4.841-4.4,4.841c-1.276,0-2.289-0.483-3.146-1.518v1.254H22.04v-16.04h1.562V65.412z M23.492,68.69
		c0,1.98,1.254,3.389,3.037,3.389c1.716,0,3.015-1.431,3.015-3.345c0-1.958-1.254-3.389-2.993-3.389
		C24.746,65.346,23.492,66.71,23.492,68.69z"/>
	<path fill="#FFFFFF" d="M35.129,65.412c0.902-1.034,1.892-1.496,3.19-1.496c2.508,0,4.356,2.002,4.356,4.752
		c0,2.795-1.87,4.841-4.4,4.841c-1.276,0-2.289-0.483-3.146-1.518v1.254h-1.562v-16.04h1.562V65.412z M35.019,68.69
		c0,1.98,1.254,3.389,3.037,3.389c1.716,0,3.015-1.431,3.015-3.345c0-1.958-1.254-3.389-2.993-3.389
		C36.273,65.346,35.019,66.71,35.019,68.69z"/>
	<path fill="#FFFFFF" d="M51.651,68.998c0.088,1.871,1.254,3.081,2.904,3.081c1.21,0,1.937-0.506,2.816-1.914l1.32,0.748
		c-1.012,1.782-2.354,2.596-4.203,2.596c-2.64,0-4.488-1.958-4.488-4.774c0-2.838,1.804-4.818,4.422-4.818
		c2.619,0,4.356,1.914,4.356,4.818v0.264H51.651z M57.13,67.679c-0.286-1.431-1.342-2.354-2.685-2.354
		c-1.32,0-2.442,0.99-2.684,2.354H57.13z M54.401,62.529l-0.968-0.55l2.311-3.169l1.628,0.727L54.401,62.529z"/>
	<path fill="#FFFFFF" d="M64.345,70.253l2.707-6.139h1.76l-4.467,9.747l-4.489-9.747h1.761L64.345,70.253z"/>
	<path fill="#FFFFFF" d="M71.208,68.998c0.088,1.871,1.254,3.081,2.904,3.081c1.21,0,1.937-0.506,2.816-1.914l1.32,0.748
		c-1.012,1.782-2.354,2.596-4.203,2.596c-2.64,0-4.488-1.958-4.488-4.774c0-2.838,1.804-4.818,4.422-4.818
		c2.619,0,4.356,1.914,4.356,4.818v0.264H71.208z M76.688,67.679c-0.286-1.431-1.342-2.354-2.685-2.354
		c-1.32,0-2.442,0.99-2.684,2.354H76.688z"/>
	<path fill="#FFFFFF" d="M84.475,66.248c-0.33-0.616-0.726-0.902-1.276-0.902c-0.594,0-1.1,0.462-1.1,1.013
		c0,0.527,0.308,0.813,1.474,1.298c1.034,0.44,1.32,0.572,1.738,0.88c0.66,0.484,1.013,1.166,1.013,2.003
		c0,1.672-1.365,2.97-3.125,2.97c-1.518,0-2.596-0.792-3.19-2.332l1.386-0.572c0.506,1.101,0.99,1.475,1.826,1.475
		c0.858,0,1.497-0.616,1.497-1.452c0-0.683-0.33-1.013-1.475-1.496c-2.112-0.902-2.64-1.452-2.64-2.663
		c0-1.452,1.144-2.552,2.662-2.552c1.123,0,1.937,0.527,2.509,1.65L84.475,66.248z"/>
	<path fill="#FFFFFF" d="M7.432,99.646H5.87v-7.679H4.924v-1.452H5.87v-3.301h1.562v3.301H9.06v1.452H7.432V99.646z"/>
	<path fill="#FFFFFF" d="M19.18,90.515v9.131h-1.562v-1.276c-0.88,1.057-1.87,1.54-3.146,1.54c-2.53,0-4.4-2.046-4.4-4.862
		c0-2.75,1.848-4.753,4.356-4.753c1.32,0,2.289,0.462,3.19,1.519v-1.298H19.18z M11.677,95.024c0,2.003,1.254,3.455,2.993,3.455
		c1.804,0,3.058-1.408,3.058-3.411c0-1.958-1.254-3.344-3.036-3.344C12.976,91.725,11.677,93.154,11.677,95.024z"/>
	<path fill="#FFFFFF" d="M22.171,104.794V90.515h1.562v1.298c0.88-1.057,1.87-1.519,3.146-1.519c2.53,0,4.4,2.047,4.4,4.841
		c0,2.75-1.848,4.774-4.356,4.774c-1.298,0-2.289-0.462-3.19-1.54v6.425H22.171z M23.623,95.135c0,1.937,1.276,3.345,3.059,3.345
		c1.694,0,2.993-1.431,2.993-3.301c0-2.002-1.254-3.454-2.993-3.454C24.899,91.725,23.623,93.133,23.623,95.135z"/>
	<path fill="#FFFFFF" d="M42.236,90.515v9.131h-1.562v-1.276c-0.88,1.057-1.87,1.54-3.146,1.54c-2.53,0-4.4-2.046-4.4-4.862
		c0-2.75,1.848-4.753,4.356-4.753c1.32,0,2.289,0.462,3.19,1.519v-1.298H42.236z M34.733,95.024c0,2.003,1.254,3.455,2.993,3.455
		c1.804,0,3.058-1.408,3.058-3.411c0-1.958-1.254-3.344-3.036-3.344C36.031,91.725,34.733,93.154,34.733,95.024z"/>
	<path fill="#FFFFFF" d="M48.967,92.648c-0.33-0.616-0.726-0.902-1.276-0.902c-0.594,0-1.1,0.462-1.1,1.013
		c0,0.527,0.308,0.813,1.474,1.298c1.034,0.44,1.32,0.572,1.738,0.88c0.66,0.484,1.012,1.166,1.012,2.003
		c0,1.672-1.364,2.97-3.125,2.97c-1.518,0-2.596-0.792-3.19-2.332l1.386-0.572c0.506,1.101,0.99,1.475,1.826,1.475
		c0.858,0,1.497-0.616,1.497-1.452c0-0.683-0.33-1.013-1.475-1.496c-2.112-0.902-2.64-1.452-2.64-2.663
		c0-1.452,1.144-2.552,2.662-2.552c1.123,0,1.937,0.527,2.509,1.65L48.967,92.648z"/>
	<path fill="#FFFFFF" d="M61.067,98.193v1.452h-9.461l6.623-7.679h-5.391v-1.452h8.515l-6.579,7.679H61.067z"/>
	<path fill="#FFFFFF" d="M64.608,99.646h-1.562v-7.679H62.1v-1.452h0.946v-3.301h1.562v3.301h1.628v1.452h-1.628V99.646z"/>
	<path fill="#FFFFFF" d="M76.357,90.515v9.131h-1.562v-1.276c-0.88,1.057-1.87,1.54-3.146,1.54c-2.53,0-4.4-2.046-4.4-4.862
		c0-2.75,1.848-4.753,4.356-4.753c1.32,0,2.288,0.462,3.19,1.519v-1.298H76.357z M68.854,95.024c0,2.003,1.254,3.455,2.993,3.455
		c1.804,0,3.058-1.408,3.058-3.411c0-1.958-1.254-3.344-3.036-3.344C70.152,91.725,68.854,93.154,68.854,95.024z"/>
	<path fill="#FFFFFF" d="M80.91,99.646h-1.562v-16.04h1.562V99.646z"/>
	<path fill="#FFFFFF" d="M92.438,90.515v9.131h-1.562v-1.276c-0.88,1.057-1.87,1.54-3.146,1.54c-2.53,0-4.4-2.046-4.4-4.862
		c0-2.75,1.848-4.753,4.356-4.753c1.32,0,2.288,0.462,3.19,1.519v-1.298H92.438z M84.935,95.024c0,2.003,1.254,3.455,2.993,3.455
		c1.804,0,3.058-1.408,3.058-3.411c0-1.958-1.254-3.344-3.035-3.344C86.233,91.725,84.935,93.154,84.935,95.024z"/>
	<path fill="#FFFFFF" d="M96.991,99.646h-1.562v-7.679h-0.945v-1.452h0.945v-3.301h1.562v3.301h1.628v1.452h-1.628V99.646z"/>
	<path fill="#FFFFFF" d="M101.698,99.646h-1.562v-7.679H99.19v-1.452h0.945v-3.301h1.562v3.301h1.629v1.452h-1.629V99.646z"/>
	<path fill="#FFFFFF" d="M113.446,90.515v9.131h-1.562v-1.276c-0.88,1.057-1.87,1.54-3.146,1.54c-2.53,0-4.4-2.046-4.4-4.862
		c0-2.75,1.849-4.753,4.356-4.753c1.32,0,2.289,0.462,3.19,1.519v-1.298H113.446z M105.944,95.024c0,2.003,1.254,3.455,2.992,3.455
		c1.805,0,3.059-1.408,3.059-3.411c0-1.958-1.254-3.344-3.037-3.344C107.242,91.725,105.944,93.154,105.944,95.024z"/>
	<path fill="#FFFFFF" d="M118,99.646h-1.562v-16.04H118V99.646z"/>
	<path fill="#FFFFFF" d="M123.28,98.018l-2.201,4.973l-1.057-0.418l1.827-5.083L123.28,98.018z"/>
	<path fill="#FFFFFF" d="M14.407,125.847c0,1.805-0.22,2.685-0.88,3.587c-0.792,1.078-2.112,1.694-3.63,1.694
		c-2.641,0-4.357-1.606-4.445-4.181h1.54c0.066,0.748,0.176,1.122,0.44,1.54c0.484,0.748,1.43,1.21,2.486,1.21
		c1.914,0,2.926-1.232,2.926-3.586v-1.343c-0.88,1.013-1.98,1.519-3.234,1.519c-2.464,0-4.334-2.068-4.334-4.774
		c0-2.772,1.892-4.819,4.422-4.819c1.276,0,2.267,0.484,3.146,1.519v-1.298h1.562V125.847z M6.882,121.49
		c0,1.98,1.232,3.366,2.971,3.366c1.782,0,3.058-1.386,3.058-3.344c0-2.003-1.254-3.389-3.036-3.389
		C8.136,118.124,6.882,119.532,6.882,121.49z"/>
	<path fill="#FFFFFF" d="M25.957,116.914v9.131h-1.562v-1.276c-0.88,1.057-1.87,1.54-3.146,1.54c-2.53,0-4.4-2.046-4.4-4.862
		c0-2.75,1.848-4.753,4.356-4.753c1.32,0,2.289,0.462,3.19,1.519v-1.298H25.957z M18.454,121.424c0,2.003,1.254,3.455,2.993,3.455
		c1.804,0,3.058-1.408,3.058-3.41c0-1.959-1.254-3.345-3.036-3.345C19.752,118.124,18.454,119.554,18.454,121.424z"/>
	<path fill="#FFFFFF" d="M30.51,116.914v0.989c0.814-0.968,1.21-1.21,2.068-1.21c0.506,0,0.836,0.088,1.386,0.396l-0.727,1.408
		c-0.396-0.242-0.594-0.309-0.924-0.309c-0.594,0-1.188,0.33-1.452,0.837c-0.242,0.439-0.352,1.1-0.352,2.2v4.818h-1.562v-9.131
		H30.51z"/>
	<path fill="#FFFFFF" d="M43.689,116.914v9.131h-1.562v-1.276c-0.88,1.057-1.87,1.54-3.146,1.54c-2.53,0-4.4-2.046-4.4-4.862
		c0-2.75,1.848-4.753,4.356-4.753c1.32,0,2.288,0.462,3.19,1.519v-1.298H43.689z M36.186,121.424c0,2.003,1.254,3.455,2.993,3.455
		c1.804,0,3.058-1.408,3.058-3.41c0-1.959-1.254-3.345-3.036-3.345C37.484,118.124,36.186,119.554,36.186,121.424z"/>
	<path fill="#FFFFFF" d="M48.242,116.914v1.1c0.792-0.968,1.496-1.32,2.64-1.32c1.1,0,2.112,0.484,2.619,1.254
		c0.352,0.572,0.506,1.255,0.506,2.442v5.655h-1.562v-5.391c0-0.969-0.066-1.408-0.308-1.782c-0.286-0.462-0.88-0.748-1.628-0.748
		c-1.584,0-2.266,1.012-2.266,3.366v4.555h-1.562v-9.131H48.242z"/>
	<path fill="#FFFFFF" d="M64.104,119.642c-0.99-1.1-1.76-1.496-2.882-1.496c-1.804,0-3.212,1.475-3.212,3.367
		c0,1.914,1.386,3.366,3.19,3.366c1.144,0,1.937-0.418,2.971-1.584v2.068c-1.123,0.704-1.871,0.945-2.927,0.945
		c-2.728,0-4.84-2.09-4.84-4.774c0-2.706,2.112-4.818,4.862-4.818c1.078,0,1.893,0.242,2.838,0.857V119.642z"/>
	<path fill="#FFFFFF" d="M68.481,113.459c0,0.616-0.506,1.122-1.123,1.122c-0.616,0-1.122-0.506-1.122-1.144
		c0-0.595,0.506-1.101,1.122-1.101C67.975,112.337,68.481,112.843,68.481,113.459z M68.129,126.045h-1.562v-9.131h1.562V126.045z"/>
	<path fill="#FFFFFF" d="M79.68,116.914v9.131h-1.562v-1.276c-0.88,1.057-1.87,1.54-3.146,1.54c-2.53,0-4.4-2.046-4.4-4.862
		c0-2.75,1.848-4.753,4.356-4.753c1.32,0,2.289,0.462,3.19,1.519v-1.298H79.68z M72.177,121.424c0,2.003,1.254,3.455,2.993,3.455
		c1.804,0,3.058-1.408,3.058-3.41c0-1.959-1.254-3.345-3.036-3.345C73.476,118.124,72.177,119.554,72.177,121.424z M75.28,115.329
		l-0.968-0.55l2.311-3.168l1.628,0.726L75.28,115.329z"/>
	<path fill="#FFFFFF" d="M85.839,123.053l2.707-6.139h1.76l-4.467,9.747l-4.489-9.747h1.761L85.839,123.053z"/>
	<path fill="#FFFFFF" d="M100.161,116.914v9.131H98.6v-1.276c-0.88,1.057-1.87,1.54-3.146,1.54c-2.53,0-4.4-2.046-4.4-4.862
		c0-2.75,1.849-4.753,4.356-4.753c1.32,0,2.289,0.462,3.19,1.519v-1.298H100.161z M92.659,121.424c0,2.003,1.254,3.455,2.992,3.455
		c1.805,0,3.059-1.408,3.059-3.41c0-1.959-1.254-3.345-3.037-3.345C93.957,118.124,92.659,119.554,92.659,121.424z"/>
	<path fill="#FFFFFF" d="M104.715,126.045h-1.562v-16.04h1.562V126.045z"/>
	<path fill="#FFFFFF" d="M109.796,125.165c0,0.616-0.483,1.1-1.078,1.1c-0.615,0-1.1-0.483-1.1-1.1c0-0.595,0.506-1.078,1.078-1.078
		C109.312,124.087,109.796,124.57,109.796,125.165z"/>
</g>
</svg>
