<?xml version="1.0" encoding="utf-8"?>
<!-- Generator: Adobe Illustrator 16.0.0, SVG Export Plug-In . SVG Version: 6.00 Build 0)  -->
<!DOCTYPE svg PUBLIC "-//W3C//DTD SVG 1.1//EN" "http://www.w3.org/Graphics/SVG/1.1/DTD/svg11.dtd">
<svg version="1.1" id="Layer_1" xmlns="http://www.w3.org/2000/svg" xmlns:xlink="http://www.w3.org/1999/xlink" x="0px" y="0px"
	 width="163.819px" height="52.398px" viewBox="0 0 163.819 52.398" enable-background="new 0 0 163.819 52.398"
	 xml:space="preserve">
<g>
	<path fill="#FFFFFF" d="M10.703,17.352l4.159-11.178h1.782l-5.963,15.534L4.74,6.174h1.805L10.703,17.352z"/>
	<path fill="#FFFFFF" d="M25.883,11.719v9.131h-1.562v-1.276c-0.88,1.057-1.87,1.54-3.146,1.54c-2.53,0-4.4-2.046-4.4-4.862
		c0-2.75,1.848-4.753,4.356-4.753c1.32,0,2.289,0.462,3.19,1.519v-1.298H25.883z M18.38,16.229c0,2.003,1.254,3.455,2.993,3.455
		c1.804,0,3.058-1.408,3.058-3.41c0-1.959-1.254-3.345-3.036-3.345C19.678,12.929,18.38,14.358,18.38,16.229z M21.482,10.134
		l-0.968-0.55l2.311-3.168l1.628,0.726L21.482,10.134z"/>
	<path fill="#FFFFFF" d="M30.436,20.85h-1.562V4.81h1.562V20.85z"/>
	<path fill="#FFFFFF" d="M41.965,11.719v9.131h-1.562v-1.276c-0.88,1.057-1.87,1.54-3.146,1.54c-2.53,0-4.4-2.046-4.4-4.862
		c0-2.75,1.848-4.753,4.356-4.753c1.32,0,2.288,0.462,3.19,1.519v-1.298H41.965z M34.461,16.229c0,2.003,1.254,3.455,2.993,3.455
		c1.804,0,3.058-1.408,3.058-3.41c0-1.959-1.254-3.345-3.036-3.345C35.76,12.929,34.461,14.358,34.461,16.229z"/>
	<path fill="#FFFFFF" d="M48.696,13.853c-0.33-0.616-0.726-0.902-1.276-0.902c-0.594,0-1.1,0.462-1.1,1.013
		c0,0.527,0.308,0.813,1.474,1.298c1.034,0.44,1.32,0.572,1.738,0.88c0.66,0.484,1.012,1.166,1.012,2.003
		c0,1.672-1.364,2.97-3.125,2.97c-1.518,0-2.596-0.792-3.19-2.332l1.386-0.572c0.506,1.101,0.99,1.475,1.826,1.475
		c0.858,0,1.497-0.616,1.497-1.452c0-0.683-0.33-1.013-1.475-1.496c-2.112-0.902-2.64-1.452-2.64-2.663
		c0-1.452,1.144-2.552,2.662-2.552c1.123,0,1.937,0.528,2.509,1.65L48.696,13.853z"/>
	<path fill="#FFFFFF" d="M56.396,13.853c-0.33-0.616-0.726-0.902-1.276-0.902c-0.594,0-1.1,0.462-1.1,1.013
		c0,0.527,0.308,0.813,1.474,1.298c1.034,0.44,1.32,0.572,1.738,0.88c0.66,0.484,1.012,1.166,1.012,2.003
		c0,1.672-1.364,2.97-3.125,2.97c-1.518,0-2.596-0.792-3.19-2.332l1.386-0.572c0.506,1.101,0.99,1.475,1.826,1.475
		c0.858,0,1.497-0.616,1.497-1.452c0-0.683-0.33-1.013-1.475-1.496c-2.112-0.902-2.64-1.452-2.64-2.663
		c0-1.452,1.144-2.552,2.662-2.552c1.123,0,1.937,0.528,2.509,1.65L56.396,13.853z"/>
	<path fill="#FFFFFF" d="M68.496,19.397v1.452h-9.461l6.623-7.679h-5.391v-1.452h8.515l-6.579,7.679H68.496z"/>
	<path fill="#FFFFFF" d="M79.012,11.719v9.131H77.45v-1.276c-0.88,1.057-1.87,1.54-3.146,1.54c-2.53,0-4.4-2.046-4.4-4.862
		c0-2.75,1.848-4.753,4.356-4.753c1.32,0,2.289,0.462,3.19,1.519v-1.298H79.012z M71.509,16.229c0,2.003,1.254,3.455,2.993,3.455
		c1.804,0,3.058-1.408,3.058-3.41c0-1.959-1.254-3.345-3.036-3.345C72.807,12.929,71.509,14.358,71.509,16.229z"/>
	<path fill="#FFFFFF" d="M89.064,15.085l3.3-3.366h2.091l-3.895,3.895l4.643,5.236h-2.068l-3.675-4.158l-0.396,0.396v3.763h-1.562
		V4.81h1.562V15.085z"/>
	<path fill="#FFFFFF" d="M98.679,8.264c0,0.616-0.507,1.122-1.123,1.122c-0.615,0-1.122-0.506-1.122-1.144
		c0-0.595,0.507-1.101,1.122-1.101C98.172,7.142,98.679,7.647,98.679,8.264z M98.326,20.85h-1.562v-9.131h1.562V20.85z"/>
	<path fill="#FFFFFF" d="M108.402,11.719v1.1c0.792-0.968,1.496-1.32,2.64-1.32c1.101,0,2.113,0.484,2.619,1.254
		c0.352,0.572,0.506,1.255,0.506,2.442v5.655h-1.562v-5.391c0-0.969-0.066-1.408-0.308-1.782c-0.286-0.462-0.88-0.748-1.628-0.748
		c-1.584,0-2.267,1.012-2.267,3.366v4.555h-1.562v-9.131H108.402z"/>
	<path fill="#FFFFFF" d="M125.695,11.719v9.131h-1.562v-1.276c-0.88,1.057-1.87,1.54-3.146,1.54c-2.53,0-4.4-2.046-4.4-4.862
		c0-2.75,1.849-4.753,4.356-4.753c1.32,0,2.288,0.462,3.19,1.519v-1.298H125.695z M118.192,16.229c0,2.003,1.254,3.455,2.992,3.455
		c1.805,0,3.059-1.408,3.059-3.41c0-1.959-1.254-3.345-3.037-3.345C119.49,12.929,118.192,14.358,118.192,16.229z M121.294,10.134
		l-0.968-0.55l2.311-3.168l1.628,0.726L121.294,10.134z"/>
	<path fill="#FFFFFF" d="M130.248,20.85h-1.562V4.81h1.562V20.85z"/>
	<path fill="#FFFFFF" d="M134.802,17.043c0,0.858,0.088,1.32,0.285,1.717c0.309,0.571,0.99,0.924,1.783,0.924
		c0.77,0,1.451-0.353,1.76-0.924c0.197-0.396,0.285-0.858,0.285-1.717v-5.324h1.562v5.5c0,1.343-0.22,2.091-0.836,2.751
		c-0.66,0.726-1.65,1.144-2.794,1.144c-1.122,0-2.112-0.418-2.772-1.144c-0.616-0.66-0.836-1.408-0.836-2.751v-5.5h1.562V17.043z"/>
	<path fill="#FFFFFF" d="M145.031,11.719v1.1c0.792-0.968,1.496-1.32,2.64-1.32c1.101,0,2.113,0.484,2.619,1.254
		c0.352,0.572,0.506,1.255,0.506,2.442v5.655h-1.562v-5.391c0-0.969-0.066-1.408-0.308-1.782c-0.286-0.462-0.88-0.748-1.628-0.748
		c-1.584,0-2.267,1.012-2.267,3.366v4.555h-1.562v-9.131H145.031z"/>
	<path fill="#FFFFFF" d="M155.349,15.085l3.301-3.366h2.09l-3.895,3.895l4.643,5.236h-2.068l-3.674-4.158l-0.396,0.396v3.763h-1.562
		V4.81h1.562V15.085z"/>
	<path fill="#FFFFFF" d="M7.645,41.485l3.3-3.366h2.09l-3.895,3.895l4.643,5.236h-2.068l-3.674-4.158l-0.396,0.396v3.763H6.082
		V31.21h1.562V41.485z"/>
	<path fill="#FFFFFF" d="M23.837,42.718c0,2.706-2.112,4.796-4.863,4.796c-2.706,0-4.796-2.134-4.796-4.885
		c0-2.574,2.178-4.708,4.84-4.708C21.725,37.921,23.837,40.033,23.837,42.718z M15.784,42.674c0,1.979,1.32,3.41,3.19,3.41
		c1.893,0,3.256-1.408,3.256-3.366c0-1.959-1.364-3.367-3.234-3.367C17.17,39.351,15.784,40.781,15.784,42.674z M18.205,34.928
		c0,0.595-0.506,1.101-1.1,1.101c-0.616,0-1.1-0.506-1.1-1.122c0-0.572,0.506-1.078,1.1-1.078S18.205,34.312,18.205,34.928z
		 M22.011,34.928c0,0.595-0.506,1.101-1.1,1.101c-0.594,0-1.1-0.506-1.1-1.122c0-0.572,0.506-1.078,1.1-1.078
		C21.527,33.828,22.011,34.312,22.011,34.928z"/>
	<path fill="#FFFFFF" d="M29.073,44.258l2.707-6.139h1.76l-4.467,9.747l-4.489-9.747h1.761L29.073,44.258z"/>
	<path fill="#FFFFFF" d="M35.936,43.003c0.088,1.871,1.254,3.081,2.905,3.081c1.21,0,1.936-0.506,2.816-1.914l1.32,0.748
		c-1.012,1.782-2.354,2.596-4.203,2.596c-2.64,0-4.488-1.958-4.488-4.774c0-2.838,1.804-4.818,4.422-4.818
		c2.619,0,4.357,1.914,4.357,4.818v0.264H35.936z M41.415,41.684c-0.286-1.431-1.342-2.354-2.685-2.354
		c-1.32,0-2.442,0.99-2.684,2.354H41.415z"/>
	<path fill="#FFFFFF" d="M47.09,47.25h-1.562v-7.679h-0.946v-1.452h0.946v-3.301h1.562v3.301h1.628v1.452H47.09V47.25z"/>
	<path fill="#FFFFFF" d="M51.798,41.485l3.3-3.366h2.09l-3.895,3.895l4.643,5.236h-2.068l-3.674-4.158l-0.396,0.396v3.763h-1.562
		V31.21h1.562V41.485z"/>
	<path fill="#FFFFFF" d="M60.069,43.003c0.088,1.871,1.254,3.081,2.904,3.081c1.21,0,1.937-0.506,2.816-1.914l1.32,0.748
		c-1.012,1.782-2.354,2.596-4.203,2.596c-2.64,0-4.488-1.958-4.488-4.774c0-2.838,1.804-4.818,4.422-4.818
		c2.619,0,4.356,1.914,4.356,4.818v0.264H60.069z M65.548,41.684c-0.286-1.431-1.342-2.354-2.685-2.354
		c-1.32,0-2.442,0.99-2.684,2.354H65.548z"/>
	<path fill="#FFFFFF" d="M77.736,45.798v1.452h-9.461l6.623-7.679h-5.391v-1.452h8.515l-6.579,7.679H77.736z"/>
	<path fill="#FFFFFF" d="M88.78,42.718c0,2.706-2.112,4.796-4.863,4.796c-2.707,0-4.796-2.134-4.796-4.885
		c0-2.574,2.178-4.708,4.84-4.708C86.668,37.921,88.78,40.033,88.78,42.718z M80.727,42.674c0,1.979,1.32,3.41,3.19,3.41
		c1.893,0,3.256-1.408,3.256-3.366c0-1.959-1.364-3.367-3.234-3.367C82.113,39.351,80.727,40.781,80.727,42.674z M82.795,36.534
		l-0.792-0.506l2.31-3.212l1.408,0.682L82.795,36.534z M85.744,36.534l-0.814-0.506l2.333-3.212l1.408,0.682L85.744,36.534z"/>
	<path fill="#FFFFFF" d="M105.214,38.119v9.131h-1.562v-1.276c-0.879,1.057-1.869,1.54-3.146,1.54c-2.529,0-4.4-2.046-4.4-4.862
		c0-2.75,1.849-4.753,4.357-4.753c1.32,0,2.288,0.462,3.189,1.519v-1.298H105.214z M97.711,42.629c0,2.003,1.255,3.455,2.993,3.455
		c1.804,0,3.058-1.408,3.058-3.41c0-1.959-1.254-3.345-3.036-3.345C99.009,39.329,97.711,40.759,97.711,42.629z"/>
	<path fill="#FFFFFF" d="M109.767,43.443c0,0.858,0.088,1.32,0.286,1.717c0.308,0.571,0.989,0.924,1.782,0.924
		c0.77,0,1.452-0.353,1.76-0.924c0.198-0.396,0.286-0.858,0.286-1.717v-5.324h1.562v5.5c0,1.343-0.22,2.091-0.837,2.751
		c-0.659,0.726-1.649,1.144-2.794,1.144c-1.122,0-2.112-0.418-2.772-1.144c-0.615-0.66-0.836-1.408-0.836-2.751v-5.5h1.562V43.443z"
		/>
	<path fill="#FFFFFF" d="M119.997,47.25h-1.562v-7.679h-0.946v-1.452h0.946v-3.301h1.562v3.301h1.627v1.452h-1.627V47.25z"/>
	<path fill="#FFFFFF" d="M132.208,42.718c0,2.706-2.113,4.796-4.863,4.796c-2.706,0-4.797-2.134-4.797-4.885
		c0-2.574,2.179-4.708,4.841-4.708C130.095,37.921,132.208,40.033,132.208,42.718z M124.154,42.674c0,1.979,1.32,3.41,3.19,3.41
		c1.893,0,3.256-1.408,3.256-3.366c0-1.959-1.363-3.367-3.234-3.367C125.54,39.351,124.154,40.781,124.154,42.674z M127.257,36.534
		l-0.969-0.55l2.311-3.168l1.629,0.726L127.257,36.534z"/>
	<path fill="#FFFFFF" d="M136.519,34.664c0,0.616-0.506,1.122-1.122,1.122s-1.122-0.506-1.122-1.144
		c0-0.595,0.506-1.101,1.122-1.101S136.519,34.048,136.519,34.664z M136.167,52.398h-1.562V38.119h1.562V52.398z"/>
	<path fill="#FFFFFF" d="M147.717,38.119v9.131h-1.562v-1.276c-0.881,1.057-1.871,1.54-3.146,1.54c-2.531,0-4.4-2.046-4.4-4.862
		c0-2.75,1.848-4.753,4.355-4.753c1.32,0,2.289,0.462,3.191,1.519v-1.298H147.717z M140.214,42.629c0,2.003,1.254,3.455,2.992,3.455
		c1.805,0,3.059-1.408,3.059-3.41c0-1.959-1.254-3.345-3.036-3.345C141.513,39.329,140.214,40.759,140.214,42.629z M143.316,36.534
		l-0.968-0.55l2.311-3.168l1.627,0.726L143.316,36.534z"/>
	<path fill="#FFFFFF" d="M152.271,47.25h-1.562v-7.679h-0.946v-1.452h0.946v-3.301h1.562v3.301h1.627v1.452h-1.627V47.25z"/>
	<path fill="#FFFFFF" d="M157.505,46.37c0,0.616-0.483,1.1-1.078,1.1c-0.615,0-1.1-0.483-1.1-1.1c0-0.595,0.506-1.078,1.078-1.078
		C157.021,45.292,157.505,45.775,157.505,46.37z"/>
</g>
</svg>
