<?xml version="1.0" encoding="utf-8"?>
<!-- Generator: Adobe Illustrator 16.0.0, SVG Export Plug-In . SVG Version: 6.00 Build 0)  -->
<!DOCTYPE svg PUBLIC "-//W3C//DTD SVG 1.1//EN" "http://www.w3.org/Graphics/SVG/1.1/DTD/svg11.dtd">
<svg version="1.1" id="Layer_1" xmlns="http://www.w3.org/2000/svg" xmlns:xlink="http://www.w3.org/1999/xlink" x="0px" y="0px"
	 width="161.702px" height="80.851px" viewBox="0 0 161.702 80.851" enable-background="new 0 0 161.702 80.851"
	 xml:space="preserve">
<g>
	<path fill="#FFFFFF" d="M10.065,20.85h-1.65V7.691H4.872V6.174h8.757v1.518h-3.564V20.85z"/>
	<path fill="#FFFFFF" d="M24.497,16.317c0,2.706-2.112,4.796-4.863,4.796c-2.707,0-4.796-2.134-4.796-4.885
		c0-2.574,2.178-4.708,4.84-4.708C22.385,11.521,24.497,13.633,24.497,16.317z M16.444,16.273c0,1.979,1.32,3.41,3.19,3.41
		c1.893,0,3.256-1.408,3.256-3.366c0-1.959-1.364-3.367-3.234-3.367C17.83,12.95,16.444,14.381,16.444,16.273z M18.864,8.527
		c0,0.595-0.506,1.101-1.1,1.101c-0.616,0-1.1-0.506-1.1-1.122c0-0.572,0.506-1.078,1.1-1.078S18.864,7.912,18.864,8.527z
		 M22.671,8.527c0,0.595-0.506,1.101-1.1,1.101c-0.594,0-1.1-0.506-1.1-1.122c0-0.572,0.506-1.078,1.1-1.078
		C22.187,7.428,22.671,7.912,22.671,8.527z"/>
	<path fill="#FFFFFF" d="M28.456,13.017c0.902-1.034,1.892-1.496,3.19-1.496c2.508,0,4.356,2.002,4.356,4.753
		c0,2.794-1.87,4.84-4.4,4.84c-1.276,0-2.289-0.483-3.146-1.518v1.254h-1.562V4.81h1.562V13.017z M28.346,16.295
		c0,1.98,1.254,3.389,3.037,3.389c1.716,0,3.015-1.431,3.015-3.345c0-1.958-1.254-3.389-2.993-3.389
		C29.6,12.95,28.346,14.314,28.346,16.295z"/>
	<path fill="#FFFFFF" d="M39.984,13.017c0.902-1.034,1.892-1.496,3.19-1.496c2.508,0,4.356,2.002,4.356,4.753
		c0,2.794-1.87,4.84-4.4,4.84c-1.276,0-2.289-0.483-3.146-1.518v1.254h-1.562V4.81h1.562V13.017z M39.874,16.295
		c0,1.98,1.254,3.389,3.037,3.389c1.716,0,3.015-1.431,3.015-3.345c0-1.958-1.254-3.389-2.993-3.389
		C41.128,12.95,39.874,14.314,39.874,16.295z"/>
	<path fill="#FFFFFF" d="M52.238,19.222l-2.201,4.973l-1.056-0.418l1.826-5.083L52.238,19.222z"/>
	<path fill="#FFFFFF" d="M62.005,11.719v0.989c0.638-0.857,1.298-1.21,2.266-1.21c1.1,0,1.98,0.528,2.508,1.475
		c0.55-0.969,1.474-1.475,2.663-1.475c1.056,0,1.98,0.462,2.464,1.232c0.352,0.572,0.506,1.232,0.506,2.332v5.787h-1.562v-5.545
		c0-1.672-0.484-2.376-1.65-2.376c-1.32,0-1.958,0.946-1.958,2.86v5.061H65.68v-5.413c0-1.672-0.572-2.508-1.694-2.508
		c-0.682,0-1.342,0.396-1.65,0.99c-0.22,0.439-0.33,1.078-0.33,1.958v4.973h-1.562v-9.131H62.005z"/>
	<path fill="#FFFFFF" d="M77.317,8.264c0,0.616-0.506,1.122-1.122,1.122c-0.616,0-1.123-0.506-1.123-1.144
		c0-0.595,0.506-1.101,1.123-1.101C76.811,7.142,77.317,7.647,77.317,8.264z M76.965,20.85h-1.562v-9.131h1.562V20.85z"/>
	<path fill="#FFFFFF" d="M81.541,11.719v1.1c0.792-0.968,1.496-1.32,2.64-1.32c1.1,0,2.112,0.484,2.619,1.254
		c0.352,0.572,0.506,1.255,0.506,2.442v5.655h-1.562v-5.391c0-0.969-0.066-1.408-0.308-1.782c-0.286-0.462-0.88-0.748-1.628-0.748
		c-1.584,0-2.266,1.012-2.266,3.366v4.555h-1.562v-9.131H81.541z"/>
	<path fill="#FFFFFF" d="M91.858,20.85h-1.562v-7.679h-0.945v-1.452h0.945V8.418h1.562v3.301h1.629v1.452h-1.629V20.85z"/>
	<path fill="#FFFFFF" d="M15.147,45.731v1.519H5.686l5.325-6.183c1.958-2.267,2.553-3.278,2.553-4.401
		c0-1.562-1.298-2.816-2.949-2.816c-0.99,0-1.958,0.507-2.442,1.276c-0.286,0.462-0.418,0.858-0.484,1.738h-1.65
		c0.132-1.254,0.286-1.826,0.748-2.53c0.792-1.232,2.245-1.98,3.807-1.98c2.574,0,4.577,1.915,4.577,4.357
		c0,1.605-0.572,2.618-3.168,5.588l-2.992,3.433H15.147z"/>
	<path fill="#FFFFFF" d="M22.868,34.092L21.9,37.238c0.374-0.065,0.528-0.088,0.836-0.088c2.838,0,4.929,2.156,4.929,5.083
		c0,3.015-2.288,5.259-5.391,5.259c-1.915,0-3.411-0.88-4.489-2.618l1.298-0.925c0.88,1.387,1.914,2.024,3.322,2.024
		c2.046,0,3.653-1.628,3.653-3.719c0-2.068-1.584-3.652-3.631-3.652c-0.924,0-1.65,0.242-2.838,0.99l2.134-7.019h5.831v1.518H22.868
		z"/>
	<path fill="#FFFFFF" d="M41.019,39.879c0,2.09-0.506,3.938-1.453,5.369c-0.924,1.364-2.398,2.244-3.784,2.244
		c-1.452,0-2.949-0.924-3.873-2.354c-0.924-1.452-1.386-3.19-1.386-5.28c0-4.203,2.31-7.504,5.259-7.504
		C38.752,32.354,41.019,35.61,41.019,39.879z M32.129,39.879c0,3.521,1.541,6.095,3.653,6.095c2.024,0,3.63-2.685,3.63-6.051
		c0-3.454-1.584-6.073-3.652-6.073C33.714,33.85,32.129,36.49,32.129,39.879z"/>
	<path fill="#FFFFFF" d="M58.993,39.879c0,2.09-0.506,3.938-1.453,5.369c-0.924,1.364-2.398,2.244-3.784,2.244
		c-1.452,0-2.949-0.924-3.873-2.354c-0.924-1.452-1.386-3.19-1.386-5.28c0-4.203,2.31-7.504,5.259-7.504
		C56.726,32.354,58.993,35.61,58.993,39.879z M50.103,39.879c0,3.521,1.541,6.095,3.653,6.095c2.024,0,3.63-2.685,3.63-6.051
		c0-3.454-1.584-6.073-3.652-6.073C51.688,33.85,50.103,36.49,50.103,39.879z"/>
	<path fill="#FFFFFF" d="M71.466,39.879c0,2.09-0.506,3.938-1.453,5.369c-0.924,1.364-2.398,2.244-3.784,2.244
		c-1.452,0-2.949-0.924-3.873-2.354c-0.924-1.452-1.386-3.19-1.386-5.28c0-4.203,2.31-7.504,5.259-7.504
		C69.2,32.354,71.466,35.61,71.466,39.879z M62.577,39.879c0,3.521,1.541,6.095,3.653,6.095c2.024,0,3.63-2.685,3.63-6.051
		c0-3.454-1.584-6.073-3.652-6.073C64.161,33.85,62.577,36.49,62.577,39.879z"/>
	<path fill="#FFFFFF" d="M83.94,39.879c0,2.09-0.506,3.938-1.452,5.369c-0.924,1.364-2.398,2.244-3.785,2.244
		c-1.452,0-2.949-0.924-3.873-2.354c-0.924-1.452-1.386-3.19-1.386-5.28c0-4.203,2.31-7.504,5.259-7.504
		C81.674,32.354,83.94,35.61,83.94,39.879z M75.051,39.879c0,3.521,1.541,6.095,3.653,6.095c2.024,0,3.63-2.685,3.63-6.051
		c0-3.454-1.584-6.073-3.652-6.073C76.635,33.85,75.051,36.49,75.051,39.879z"/>
	<path fill="#FFFFFF" d="M100.462,38.119v9.131h-1.562v-1.276c-0.88,1.057-1.87,1.54-3.146,1.54c-2.53,0-4.4-2.046-4.4-4.862
		c0-2.75,1.848-4.753,4.356-4.753c1.32,0,2.288,0.462,3.19,1.519v-1.298H100.462z M92.958,42.629c0,2.003,1.255,3.455,2.993,3.455
		c1.804,0,3.058-1.408,3.058-3.41c0-1.959-1.254-3.345-3.035-3.345C94.257,39.329,92.958,40.759,92.958,42.629z"/>
	<path fill="#FFFFFF" d="M105.015,43.443c0,0.858,0.088,1.32,0.286,1.717c0.308,0.571,0.989,0.924,1.782,0.924
		c0.77,0,1.452-0.353,1.76-0.924c0.198-0.396,0.286-0.858,0.286-1.717v-5.324h1.562v5.5c0,1.343-0.22,2.091-0.837,2.751
		c-0.659,0.726-1.649,1.144-2.794,1.144c-1.122,0-2.112-0.418-2.772-1.144c-0.615-0.66-0.836-1.408-0.836-2.751v-5.5h1.562V43.443z"
		/>
	<path fill="#FFFFFF" d="M115.244,47.25h-1.562v-7.679h-0.946v-1.452h0.946v-3.301h1.562v3.301h1.628v1.452h-1.628V47.25z"/>
	<path fill="#FFFFFF" d="M127.455,42.718c0,2.706-2.112,4.796-4.862,4.796c-2.707,0-4.797-2.134-4.797-4.885
		c0-2.574,2.178-4.708,4.84-4.708C125.343,37.921,127.455,40.033,127.455,42.718z M119.401,42.674c0,1.979,1.32,3.41,3.191,3.41
		c1.893,0,3.256-1.408,3.256-3.366c0-1.959-1.363-3.367-3.234-3.367C120.788,39.351,119.401,40.781,119.401,42.674z M122.505,36.534
		l-0.969-0.55l2.311-3.168l1.628,0.726L122.505,36.534z"/>
	<path fill="#FFFFFF" d="M143.889,38.119v9.131h-1.562v-1.276c-0.881,1.057-1.871,1.54-3.146,1.54c-2.531,0-4.4-2.046-4.4-4.862
		c0-2.75,1.848-4.753,4.355-4.753c1.32,0,2.289,0.462,3.191,1.519v-1.298H143.889z M136.386,42.629c0,2.003,1.254,3.455,2.992,3.455
		c1.805,0,3.059-1.408,3.059-3.41c0-1.959-1.254-3.345-3.036-3.345C137.685,39.329,136.386,40.759,136.386,42.629z"/>
	<path fill="#FFFFFF" d="M155.021,45.798v1.452h-9.461l6.623-7.679h-5.391v-1.452h8.515l-6.579,7.679H155.021z"/>
	<path fill="#FFFFFF" d="M14.619,64.519v9.131h-1.562v-1.276c-0.88,1.057-1.87,1.54-3.146,1.54c-2.53,0-4.4-2.046-4.4-4.862
		c0-2.75,1.848-4.753,4.356-4.753c1.32,0,2.289,0.462,3.19,1.519v-1.298H14.619z M7.116,69.028c0,2.003,1.254,3.455,2.993,3.455
		c1.804,0,3.058-1.408,3.058-3.411c0-1.958-1.254-3.344-3.036-3.344C8.415,65.729,7.116,67.158,7.116,69.028z"/>
	<path fill="#FFFFFF" d="M26.147,57.609v16.04h-1.584v-1.254c-0.748,0.99-1.826,1.518-3.146,1.518c-2.508,0-4.378-2.046-4.378-4.841
		c0-2.75,1.848-4.752,4.356-4.752c1.298,0,2.288,0.462,3.19,1.496v-8.207H26.147z M18.644,69.028c0,2.003,1.254,3.455,2.993,3.455
		c1.826,0,3.036-1.364,3.036-3.411c0-1.122-0.286-1.914-0.924-2.486c-0.572-0.527-1.342-0.836-2.09-0.836
		C19.942,65.75,18.644,67.181,18.644,69.028z"/>
	<path fill="#FFFFFF" d="M37.675,64.519v9.131h-1.562v-1.276c-0.88,1.057-1.87,1.54-3.146,1.54c-2.53,0-4.4-2.046-4.4-4.862
		c0-2.75,1.848-4.753,4.356-4.753c1.32,0,2.289,0.462,3.19,1.519v-1.298H37.675z M30.172,69.028c0,2.003,1.254,3.455,2.993,3.455
		c1.804,0,3.058-1.408,3.058-3.411c0-1.958-1.254-3.344-3.036-3.344C31.47,65.729,30.172,67.158,30.172,69.028z"/>
	<path fill="#FFFFFF" d="M42.228,73.649h-1.562v-7.679h-0.946v-1.452h0.946v-3.301h1.562v3.301h1.628v1.452h-1.628V73.649z"/>
	<path fill="#FFFFFF" d="M46.936,65.816c0.902-1.034,1.892-1.496,3.19-1.496c2.508,0,4.356,2.002,4.356,4.752
		c0,2.795-1.87,4.841-4.4,4.841c-1.276,0-2.289-0.483-3.146-1.518v1.254h-1.562v-16.04h1.562V65.816z M46.825,69.095
		c0,1.98,1.254,3.389,3.037,3.389c1.716,0,3.015-1.431,3.015-3.345c0-1.958-1.254-3.389-2.993-3.389
		C48.08,65.75,46.825,67.114,46.825,69.095z"/>
	<path fill="#FFFFFF" d="M65.438,64.519v9.131h-1.562v-1.276c-0.88,1.057-1.87,1.54-3.146,1.54c-2.53,0-4.4-2.046-4.4-4.862
		c0-2.75,1.848-4.753,4.356-4.753c1.32,0,2.289,0.462,3.19,1.519v-1.298H65.438z M57.935,69.028c0,2.003,1.254,3.455,2.993,3.455
		c1.804,0,3.058-1.408,3.058-3.411c0-1.958-1.254-3.344-3.036-3.344C59.233,65.729,57.935,67.158,57.935,69.028z M61.037,62.934
		l-0.968-0.55l2.311-3.169l1.628,0.727L61.037,62.934z"/>
	<path fill="#FFFFFF" d="M76.569,72.197v1.452h-9.461l6.623-7.679H68.34v-1.452h8.515l-6.579,7.679H76.569z"/>
	<path fill="#FFFFFF" d="M80.463,61.063c0,0.616-0.506,1.122-1.122,1.122c-0.616,0-1.123-0.506-1.123-1.144
		c0-0.595,0.506-1.101,1.123-1.101C79.957,59.941,80.463,60.447,80.463,61.063z M80.111,73.649h-1.562v-9.131h1.562V73.649z"/>
	<path fill="#FFFFFF" d="M86.864,66.652c-0.33-0.616-0.726-0.902-1.276-0.902c-0.594,0-1.1,0.462-1.1,1.013
		c0,0.527,0.308,0.813,1.474,1.298c1.035,0.44,1.32,0.572,1.738,0.88c0.66,0.484,1.013,1.166,1.013,2.003
		c0,1.672-1.364,2.97-3.125,2.97c-1.518,0-2.596-0.792-3.19-2.332l1.386-0.572c0.506,1.101,0.99,1.475,1.826,1.475
		c0.858,0,1.496-0.616,1.496-1.452c0-0.683-0.33-1.013-1.474-1.496c-2.112-0.902-2.64-1.452-2.64-2.663
		c0-1.452,1.144-2.552,2.662-2.552c1.122,0,1.937,0.527,2.509,1.65L86.864,66.652z"/>
	<path fill="#FFFFFF" d="M92.386,69.843c0,0.858,0.088,1.32,0.286,1.717c0.308,0.571,0.99,0.924,1.782,0.924
		c0.771,0,1.453-0.353,1.761-0.924c0.198-0.396,0.286-0.858,0.286-1.717v-5.324h1.562v5.5c0,1.343-0.221,2.091-0.837,2.751
		c-0.659,0.726-1.649,1.144-2.794,1.144c-1.123,0-2.112-0.418-2.772-1.144c-0.616-0.66-0.837-1.408-0.837-2.751v-5.5h1.562V69.843z"
		/>
	<path fill="#FFFFFF" d="M102.616,64.519v1.1c0.792-0.968,1.496-1.32,2.641-1.32c1.1,0,2.111,0.484,2.618,1.255
		c0.353,0.571,0.506,1.254,0.506,2.441v5.655h-1.562v-5.391c0-0.969-0.066-1.408-0.309-1.782c-0.286-0.462-0.881-0.748-1.629-0.748
		c-1.584,0-2.266,1.012-2.266,3.366v4.555h-1.562v-9.131H102.616z"/>
	<path fill="#FFFFFF" d="M112.935,67.885l3.3-3.366h2.091l-3.895,3.895l4.643,5.236h-2.068l-3.675-4.158l-0.396,0.396v3.763h-1.562
		v-16.04h1.562V67.885z"/>
	<path fill="#FFFFFF" d="M122.196,65.816c0.901-1.034,1.892-1.496,3.189-1.496c2.509,0,4.357,2.002,4.357,4.752
		c0,2.795-1.871,4.841-4.4,4.841c-1.277,0-2.289-0.483-3.146-1.518v1.254h-1.562v-16.04h1.562V65.816z M122.085,69.095
		c0,1.98,1.255,3.389,3.037,3.389c1.717,0,3.015-1.431,3.015-3.345c0-1.958-1.255-3.389-2.993-3.389
		C123.34,65.75,122.085,67.114,122.085,69.095z"/>
	<path fill="#FFFFFF" d="M140.698,64.519v9.131h-1.562v-1.276c-0.879,1.057-1.869,1.54-3.146,1.54c-2.529,0-4.4-2.046-4.4-4.862
		c0-2.75,1.849-4.753,4.357-4.753c1.32,0,2.288,0.462,3.189,1.519v-1.298H140.698z M133.195,69.028c0,2.003,1.255,3.455,2.993,3.455
		c1.804,0,3.058-1.408,3.058-3.411c0-1.958-1.254-3.344-3.036-3.344C134.493,65.729,133.195,67.158,133.195,69.028z"/>
	<path fill="#FFFFFF" d="M145.251,64.519v1.1c0.793-0.968,1.496-1.32,2.641-1.32c1.1,0,2.112,0.484,2.619,1.255
		c0.352,0.571,0.506,1.254,0.506,2.441v5.655h-1.562v-5.391c0-0.969-0.066-1.408-0.309-1.782c-0.285-0.462-0.88-0.748-1.628-0.748
		c-1.584,0-2.267,1.012-2.267,3.366v4.555h-1.562v-9.131H145.251z"/>
	<path fill="#FFFFFF" d="M156.097,72.77c0,0.616-0.483,1.1-1.078,1.1c-0.615,0-1.1-0.483-1.1-1.1c0-0.595,0.506-1.078,1.078-1.078
		C155.613,71.691,156.097,72.175,156.097,72.77z"/>
</g>
</svg>
