<?xml version="1.0" encoding="utf-8"?>
<!-- Generator: Adobe Illustrator 16.0.0, SVG Export Plug-In . SVG Version: 6.00 Build 0)  -->
<!DOCTYPE svg PUBLIC "-//W3C//DTD SVG 1.1//EN" "http://www.w3.org/Graphics/SVG/1.1/DTD/svg11.dtd">
<svg version="1.1" id="Layer_1" xmlns="http://www.w3.org/2000/svg" xmlns:xlink="http://www.w3.org/1999/xlink" x="0px" y="0px"
	 width="147.353px" height="29.989px" viewBox="0 0 147.353 29.989" enable-background="new 0 0 147.353 29.989"
	 xml:space="preserve">
<g>
	<path fill="#FFFFFF" d="M14.399,6.174h2.2l-6.887,6.843l7.107,7.833h-2.245l-6.007-6.733L8.15,14.535v6.314H6.5V6.174h1.65v6.293
		L14.399,6.174z"/>
	<path fill="#FFFFFF" d="M19.656,16.603c0.088,1.871,1.254,3.081,2.905,3.081c1.21,0,1.936-0.506,2.816-1.914l1.32,0.748
		c-1.012,1.782-2.354,2.596-4.203,2.596c-2.64,0-4.488-1.958-4.488-4.774c0-2.838,1.804-4.818,4.422-4.818
		c2.619,0,4.357,1.914,4.357,4.818v0.264H19.656z M25.135,15.283c-0.286-1.431-1.342-2.354-2.685-2.354
		c-1.32,0-2.442,0.99-2.684,2.354H25.135z M22.406,10.134l-0.968-0.55l2.311-3.168l1.628,0.726L22.406,10.134z"/>
	<path fill="#FFFFFF" d="M30.744,11.719v0.989c0.814-0.968,1.21-1.21,2.068-1.21c0.506,0,0.836,0.088,1.386,0.396l-0.726,1.408
		c-0.396-0.242-0.594-0.309-0.924-0.309c-0.594,0-1.188,0.33-1.452,0.837c-0.242,0.439-0.352,1.1-0.352,2.2v4.818h-1.562v-9.131
		H30.744z"/>
	<path fill="#FFFFFF" d="M37.586,8.264c0,0.616-0.506,1.122-1.122,1.122c-0.616,0-1.123-0.506-1.123-1.144
		c0-0.595,0.506-1.101,1.123-1.101C37.08,7.142,37.586,7.647,37.586,8.264z M37.234,25.998h-1.562V11.719h1.562V25.998z"/>
	<path fill="#FFFFFF" d="M41.303,16.603c0.088,1.871,1.254,3.081,2.905,3.081c1.21,0,1.936-0.506,2.816-1.914l1.32,0.748
		c-1.012,1.782-2.354,2.596-4.203,2.596c-2.64,0-4.488-1.958-4.488-4.774c0-2.838,1.804-4.818,4.422-4.818
		c2.619,0,4.357,1.914,4.357,4.818v0.264H41.303z M46.782,15.283c-0.286-1.431-1.342-2.354-2.685-2.354
		c-1.32,0-2.442,0.99-2.684,2.354H46.782z"/>
	<path fill="#FFFFFF" d="M52.392,11.719v1.1c0.792-0.968,1.496-1.32,2.64-1.32c1.1,0,2.112,0.484,2.619,1.254
		c0.352,0.572,0.506,1.255,0.506,2.442v5.655h-1.562v-5.391c0-0.969-0.066-1.408-0.308-1.782c-0.286-0.462-0.88-0.748-1.628-0.748
		c-1.584,0-2.266,1.012-2.266,3.366v4.555h-1.562v-9.131H52.392z"/>
	<path fill="#FFFFFF" d="M75.185,11.719v9.131h-1.562v-1.276c-0.88,1.057-1.87,1.54-3.146,1.54c-2.53,0-4.4-2.046-4.4-4.862
		c0-2.75,1.848-4.753,4.356-4.753c1.32,0,2.288,0.462,3.19,1.519v-1.298H75.185z M67.681,16.229c0,2.003,1.254,3.455,2.993,3.455
		c1.804,0,3.058-1.408,3.058-3.41c0-1.959-1.254-3.345-3.036-3.345C68.979,12.929,67.681,14.358,67.681,16.229z"/>
	<path fill="#FFFFFF" d="M80.089,8.264c0,0.616-0.506,1.122-1.122,1.122c-0.616,0-1.123-0.506-1.123-1.144
		c0-0.595,0.506-1.101,1.123-1.101C79.583,7.142,80.089,7.647,80.089,8.264z M79.737,25.998h-1.562V11.719h1.562V25.998z"/>
	<path fill="#FFFFFF" d="M91.288,11.719v9.131h-1.562v-1.276c-0.88,1.057-1.87,1.54-3.146,1.54c-2.53,0-4.4-2.046-4.4-4.862
		c0-2.75,1.848-4.753,4.356-4.753c1.32,0,2.288,0.462,3.19,1.519v-1.298H91.288z M83.785,16.229c0,2.003,1.254,3.455,2.993,3.455
		c1.804,0,3.058-1.408,3.058-3.41c0-1.959-1.254-3.345-3.035-3.345C85.083,12.929,83.785,14.358,83.785,16.229z M86.888,10.134
		l-0.969-0.55l2.311-3.168l1.628,0.726L86.888,10.134z"/>
	<path fill="#FFFFFF" d="M95.841,11.719v1.1c0.792-0.968,1.496-1.32,2.641-1.32c1.1,0,2.111,0.484,2.618,1.254
		c0.353,0.572,0.506,1.255,0.506,2.442v5.655h-1.562v-5.391c0-0.969-0.066-1.408-0.309-1.782c-0.286-0.462-0.881-0.748-1.629-0.748
		c-1.584,0-2.266,1.012-2.266,3.366v4.555h-1.562v-9.131H95.841z"/>
	<path fill="#FFFFFF" d="M106.158,20.85h-1.562V4.81h1.562V20.85z"/>
	<path fill="#FFFFFF" d="M117.687,11.719v9.131h-1.562v-1.276c-0.879,1.057-1.869,1.54-3.146,1.54c-2.529,0-4.4-2.046-4.4-4.862
		c0-2.75,1.849-4.753,4.357-4.753c1.32,0,2.288,0.462,3.189,1.519v-1.298H117.687z M110.184,16.229c0,2.003,1.255,3.455,2.993,3.455
		c1.804,0,3.058-1.408,3.058-3.41c0-1.959-1.254-3.345-3.036-3.345C111.481,12.929,110.184,14.358,110.184,16.229z"/>
	<path fill="#FFFFFF" d="M122.239,20.85h-1.562v-7.679h-0.945v-1.452h0.945V8.418h1.562v3.301h1.629v1.452h-1.629V20.85z"/>
	<path fill="#FFFFFF" d="M134.45,16.317c0,2.706-2.111,4.796-4.862,4.796c-2.706,0-4.796-2.134-4.796-4.885
		c0-2.574,2.178-4.708,4.84-4.708C132.339,11.521,134.45,13.633,134.45,16.317z M126.397,16.273c0,1.979,1.32,3.41,3.19,3.41
		c1.893,0,3.257-1.408,3.257-3.366c0-1.959-1.364-3.367-3.234-3.367C127.784,12.95,126.397,14.381,126.397,16.273z"/>
	<path fill="#FFFFFF" d="M138.409,20.85h-1.562v-7.679h-0.945v-1.452h0.945V8.418h1.562v3.301h1.629v1.452h-1.629V20.85z"/>
	<path fill="#FFFFFF" d="M144.218,19.97c0,0.616-0.484,1.1-1.101,1.1c-0.595,0-1.078-0.506-1.078-1.1
		c0-0.595,0.506-1.078,1.101-1.078C143.733,18.892,144.218,19.375,144.218,19.97z M142.325,6.174h1.605v11.705h-1.605V6.174z"/>
</g>
</svg>
