<?xml version="1.0" encoding="utf-8"?>
<!-- Generator: Adobe Illustrator 16.0.0, SVG Export Plug-In . SVG Version: 6.00 Build 0)  -->
<!DOCTYPE svg PUBLIC "-//W3C//DTD SVG 1.1//EN" "http://www.w3.org/Graphics/SVG/1.1/DTD/svg11.dtd">
<svg version="1.1" id="Layer_1" xmlns="http://www.w3.org/2000/svg" xmlns:xlink="http://www.w3.org/1999/xlink" x="0px" y="0px"
	 width="140.319px" height="24.489px" viewBox="0 0 140.319 24.489" enable-background="new 0 0 140.319 24.489"
	 xml:space="preserve">
<g>
	<path fill="#010202" d="M9.229,17.901l2.86-6.887l2.838,6.887l2.729-6.183h1.76l-4.533,9.769l-2.816-6.799L9.25,21.487
		l-4.489-9.769h1.761L9.229,17.901z"/>
	<path fill="#010202" d="M24.232,17.901l2.86-6.887l2.838,6.887l2.729-6.183h1.76l-4.533,9.769l-2.816-6.799l-2.816,6.799
		l-4.489-9.769h1.761L24.232,17.901z"/>
	<path fill="#010202" d="M39.236,17.901l2.86-6.887l2.838,6.887l2.729-6.183h1.76l-4.533,9.769l-2.816-6.799l-2.816,6.799
		l-4.489-9.769h1.761L39.236,17.901z"/>
	<path fill="#010202" d="M52.194,19.97c0,0.616-0.484,1.1-1.078,1.1c-0.616,0-1.1-0.483-1.1-1.1c0-0.595,0.506-1.078,1.078-1.078
		C51.71,18.892,52.194,19.375,52.194,19.97z"/>
	<path fill="#010202" d="M56.66,11.719v0.989c0.638-0.857,1.298-1.21,2.266-1.21c1.1,0,1.98,0.528,2.508,1.475
		c0.55-0.969,1.474-1.475,2.663-1.475c1.056,0,1.98,0.462,2.464,1.232c0.352,0.572,0.506,1.232,0.506,2.332v5.787h-1.562v-5.545
		c0-1.672-0.484-2.376-1.65-2.376c-1.32,0-1.958,0.946-1.958,2.86v5.061h-1.562v-5.413c0-1.672-0.572-2.508-1.694-2.508
		c-0.682,0-1.342,0.396-1.65,0.99c-0.22,0.439-0.33,1.078-0.33,1.958v4.973h-1.562v-9.131H56.66z"/>
	<path fill="#010202" d="M78.595,11.719v9.131h-1.562v-1.276c-0.88,1.057-1.87,1.54-3.146,1.54c-2.53,0-4.4-2.046-4.4-4.862
		c0-2.75,1.848-4.753,4.356-4.753c1.32,0,2.288,0.462,3.19,1.519v-1.298H78.595z M71.091,16.229c0,2.003,1.254,3.455,2.993,3.455
		c1.804,0,3.058-1.408,3.058-3.41c0-1.959-1.254-3.345-3.036-3.345C72.39,12.929,71.091,14.358,71.091,16.229z"/>
	<path fill="#010202" d="M83.147,4.81v7.987c0.77-0.925,1.518-1.276,2.618-1.276c1.101,0,2.112,0.483,2.618,1.254
		c0.375,0.572,0.528,1.232,0.528,2.42v5.655h-1.562v-5.545c0-1.672-0.551-2.354-1.893-2.354c-0.902,0-1.606,0.396-1.936,1.078
		c-0.264,0.528-0.374,1.188-0.374,2.267v4.555h-1.562V4.81H83.147z"/>
	<path fill="#010202" d="M100.044,19.397v1.452h-9.461l6.623-7.679h-5.391v-1.452h8.515l-6.579,7.679H100.044z"/>
	<path fill="#010202" d="M103.585,11.719v0.989c0.814-0.968,1.21-1.21,2.068-1.21c0.506,0,0.836,0.088,1.386,0.396l-0.726,1.408
		c-0.396-0.242-0.594-0.309-0.924-0.309c-0.595,0-1.189,0.33-1.453,0.837c-0.242,0.439-0.352,1.1-0.352,2.2v4.818h-1.562v-9.131
		H103.585z"/>
	<path fill="#010202" d="M110.69,20.85h-1.562v-7.679h-0.945v-1.452h0.945V8.418h1.562v3.301h1.629v1.452h-1.629V20.85z"/>
	<path fill="#010202" d="M115.927,19.97c0,0.616-0.484,1.1-1.078,1.1c-0.616,0-1.1-0.483-1.1-1.1c0-0.595,0.506-1.078,1.078-1.078
		C115.442,18.892,115.927,19.375,115.927,19.97z"/>
	<path fill="#010202" d="M120.393,4.81v7.987c0.771-0.925,1.519-1.276,2.618-1.276s2.112,0.483,2.619,1.254
		c0.373,0.572,0.527,1.232,0.527,2.42v5.655h-1.562v-5.545c0-1.672-0.55-2.354-1.893-2.354c-0.901,0-1.605,0.396-1.936,1.078
		c-0.264,0.528-0.374,1.188-0.374,2.267v4.555h-1.562V4.81H120.393z"/>
	<path fill="#010202" d="M130.71,17.043c0,0.858,0.088,1.32,0.286,1.717c0.308,0.571,0.99,0.924,1.782,0.924
		c0.771,0,1.453-0.353,1.761-0.924c0.198-0.396,0.286-0.858,0.286-1.717v-5.324h1.562v5.5c0,1.343-0.221,2.091-0.837,2.751
		c-0.659,0.726-1.649,1.144-2.794,1.144c-1.123,0-2.112-0.418-2.772-1.144c-0.616-0.66-0.837-1.408-0.837-2.751v-5.5h1.562V17.043z"
		/>
</g>
</svg>
